<?xml version="1.0" standalone="no"?>
<!DOCTYPE svg PUBLIC "-//W3C//DTD SVG 1.1//EN" "http://www.w3.org/Graphics/SVG/1.1/DTD/svg11.dtd" >
<svg xmlns="http://www.w3.org/2000/svg">
<metadata>Generated by IcoMoon</metadata>
<defs>
<font id="icomoon" horiz-adv-x="1024">
<font-face units-per-em="1024" ascent="960" descent="-64" />
<missing-glyph horiz-adv-x="1024" />
<glyph unicode="&#x20;" horiz-adv-x="512" d="" />
<glyph unicode="&#xe900;" glyph-name="sort-ico" horiz-adv-x="1331" d="M1331.2 755.2c-440.32 0-890.88 0-1331.2 0 0 51.2 0 102.4 0 153.6 0 20.48 0 51.2 0 51.2 30.72 0 71.68 0 102.4 0 409.6 0 819.2 0 1228.8 0 0-71.68 0-133.12 0-204.8zM0 550.4c337.92 0 675.84 0 1013.76 0 0-81.92 0-122.88 0-204.8-337.92 0-675.84 0-1013.76 0 0 71.68 0 133.12 0 204.8zM0 140.8c225.28 0 460.8 0 716.8 0 0-81.92 0-143.36 0-204.8-235.52 0-481.28 0-716.8 0 0 71.68 0 133.12 0 204.8z" />
<glyph unicode="&#xe901;" glyph-name="arr" horiz-adv-x="541" d="M532.6 468.386l-483.031 483.031c-11.373 11.373-29.613 11.373-40.986 0s-11.373-29.613 0-40.986l462.431-462.431-462.431-462.431c-11.373-11.373-11.373-29.613 0-40.986 5.579-5.579 13.090-8.583 20.386-8.583s14.806 2.79 20.386 8.583l483.031 483.031c11.373 11.158 11.373 29.613 0.215 40.771z" />
<glyph unicode="&#xe902;" glyph-name="call" d="M1027 82.6c-5-28.4-23.6-48-43-67.6-42.2-42.8-92.8-68.6-151.8-77.2-29.8-4.4-59.8-1.2-89.6 3.8-96.2 16.2-183 55.4-264.8 107-112 70.8-205.8 162.4-292.4 261.6-48.8 55.8-93 115-127.2 181-37.2 71.6-57.8 147.2-55 228.4 2 59 16.6 113.8 52.4 161.8 18.4 24.6 39 47.6 65 63.8 33.4 20.8 71 15.8 99-11.8 52.6-51.6 104.8-103.6 156.2-156.2 34-34.8 32-83.4-3.6-119.6-22.8-23.4-46.2-46.2-69.4-69.2-2.6-2.6-6.2-4-7.8-5 78.6-161.2 196.4-279.2 356-356.6 23.8 23.8 48 48.6 72.6 72.8 6.6 6.6 13.6 13 21.4 17.8 34.4 21 73 17.2 101.8-11 52.2-51.4 103.8-103.6 155.6-155.4 13-13 19.6-29 24.4-46.2 0.2-7.4 0.2-14.8 0.2-22.2z" />
<glyph unicode="&#xe903;" glyph-name="car" horiz-adv-x="1282" d="M1263 603.75l-185.5 204.75c-15 15-34.25 23.5-53.25 23.5h-213.25v44.75c0 47-36.25 83.25-81 83.25h-646.75c-47 0-83.25-36.25-83.25-83.25v-738c0-40.5 34.25-74.75 74.75-74.75h33.5c10.25-73 72-128 147.75-128 76 0 137.75 55 147.75 128h472.5c10.25-73 72-128 147.75-128 76 0 137.75 55 147.75 128h110.5v490.75c0 19-6.5 36.25-19.25 49zM1228.75 576c6.5-4.25 8.5-12.75 8.5-19.25v-66.25h-320v213.25h194.25l117.25-127.75zM42.75 512h298.75c12.75 0 21.25 8.5 21.25 21.25s-8.5 21.25-21.25 21.25h-298.75v64h213.25c12.75 0 21.25 8.5 21.25 21.25s-8.5 21.25-21.25 21.25h-213.25v215.75c0 23.5 17 40.5 40.5 40.5h644.25c23.5 0 40.5-19.25 40.5-40.5v-514h-725.25v149.25zM256-21.25c-59.75 0-106.75 47-106.75 106.75s47 106.75 106.75 106.75c59.75 0 106.75-47 106.75-106.75 0-60-47-106.75-106.75-106.75zM768 106.75h-364.25c-9.5 68.25-64.5 121-133.75 127.25-0.5 0-1 0-1.5 0-1.75 0.25-3.5 0.25-5.25 0.25-2.5 0-4.75 0.25-7.25 0.25s-4.75 0-7.25-0.25c-1.75 0-3.5-0.25-5.25-0.25-0.5 0-1 0-1.5 0-69.5-6.25-124.25-59-133.75-127.25h-33.5c-17 0-32 15-32 32v181.25h725.25v-213.25zM1024-21.25c-59.75 0-106.75 47-106.75 106.75s47 106.75 106.75 106.75c59.75 0 106.75-47 106.75-106.75 0-60-47-106.75-106.75-106.75zM1171.75 106.75c-9.5 68.25-64.5 121-133.75 127.25-0.5 0-1 0-1.5 0-1.75 0.25-3.5 0.25-5.25 0.25-2.5 0-4.75 0.25-7.25 0.25s-4.75 0-7.25-0.25c-1.75 0-3.5-0.25-5.25-0.25-0.5 0-1 0-1.5 0-69.5-6.25-124.25-59-133.75-127.25h-65.5v682.5h213.25c6.5 0 15-4.25 21.25-8.5l30.5-34.25h-165c-19.25 0-36.25-17-36.25-36.25v-226.25c0-19.25 17-36.25 36.25-36.25h326.5v-106.75h-106.75c-12.75 0-21.25-8.5-21.25-21.25s8.5-21.25 21.25-21.25h106.75v-192l-65.5 0.25zM256 128c-23.5 0-42.75-19.25-42.75-42.75s19.25-42.75 42.75-42.75 42.75 19.25 42.75 42.75-19.25 42.75-42.75 42.75zM1024 128c-23.5 0-42.75-19.25-42.75-42.75s19.25-42.75 42.75-42.75c23.5 0 42.75 19.25 42.75 42.75s-19.25 42.75-42.75 42.75z" />
<glyph unicode="&#xe904;" glyph-name="car2" horiz-adv-x="1692" d="M1367.957-64c-97.198 0-176.599 79.059-176.599 176.599 0 97.198 79.059 176.257 176.599 176.257 97.198 0 176.257-79.059 176.257-176.257 0-97.54-79.059-176.599-176.257-176.599zM1367.957 248.128c-74.952 0-135.872-60.92-135.872-135.872s60.92-135.872 135.872-135.872c74.952 0 135.872 60.92 135.872 135.872s-60.92 135.872-135.872 135.872zM1593.497 323.765h78.032v-40.385h-78.032v40.385zM286.118-64c-97.198 0-176.599 79.059-176.599 176.599 0 97.198 79.059 176.257 176.599 176.257 97.198 0 176.257-79.059 176.257-176.257 0.342-97.54-79.059-176.599-176.257-176.599zM286.118 248.128c-74.952 0-135.872-60.92-135.872-135.872s60.92-135.872 135.872-135.872c74.952 0 135.872 60.92 135.872 135.872s-60.92 135.872-135.872 135.872zM675.251-64c-97.198 0-176.257 79.059-176.257 176.599 0 97.198 79.059 176.257 176.257 176.257s176.599-79.059 176.599-176.257c0-97.54-79.401-176.599-176.599-176.599zM675.251 248.128c-74.952 0-135.872-60.92-135.872-135.872s60.92-135.872 135.872-135.872c74.952 0 135.872 60.92 135.872 135.872s-60.92 135.872-135.872 135.872zM675.251 37.989c-41.070 0-74.61 33.54-74.61 74.61s33.54 74.61 74.61 74.61c41.070 0 74.61-33.54 74.61-74.61 0-41.412-33.54-74.61-74.61-74.61zM675.251 146.481c-18.824 0-34.225-15.401-34.225-33.882 0-18.824 15.401-33.882 34.225-33.882s34.225 15.401 34.225 33.882c0 18.481-15.401 33.882-34.225 33.882zM1365.219 37.989c-41.070 0-74.61 33.54-74.61 74.61s33.54 74.61 74.61 74.61c41.070 0 74.61-33.54 74.61-74.61 0-41.412-33.198-74.61-74.61-74.61zM1365.219 146.481c-18.824 0-34.225-15.401-34.225-33.882 0-18.824 15.401-33.882 34.225-33.882s34.225 15.401 34.225 33.882c0 18.481-15.401 33.882-34.225 33.882zM286.118 37.989c-41.070 0-74.61 33.54-74.61 74.61s33.54 74.61 74.61 74.61c41.070 0 74.61-33.54 74.61-74.61 0-41.412-33.54-74.61-74.61-74.61zM286.118 146.481c-18.824 0-34.225-15.401-34.225-33.882 0-18.824 15.401-33.882 34.225-33.882s34.225 15.401 34.225 33.882c0 18.481-15.401 33.882-34.225 33.882zM1545.925 435.679h-361.070c-11.294 0-20.193 9.241-20.193 20.193v281.326c0 11.294 9.241 20.193 20.193 20.193h242.31c7.187 0 13.69-3.765 17.455-9.925 64-106.439 118.417-278.588 120.813-285.775 2.053-6.16 0.684-13.005-3.080-18.139-3.765-4.791-9.925-7.872-16.428-7.872zM1205.048 476.406h312.813c-17.112 50.31-57.497 162.567-102.332 240.599h-210.481v-240.599zM1086.973 323.080h-1066.781c-11.294 0-20.193 9.241-20.193 20.193v596.535c0 10.952 9.241 20.193 20.193 20.193h1066.439c11.294 0 20.193-9.241 20.193-20.193v-596.535c0.342-11.294-8.898-20.193-19.85-20.193zM40.385 363.465h1026.053v556.15h-1026.053v-556.15zM1086.973 92.064h-255.316c-11.294 0-20.193 9.241-20.193 20.193 0 74.952-60.92 135.872-135.872 135.872s-135.872-60.92-135.872-135.872c0-11.294-9.241-20.193-20.193-20.193h-77.005c-11.294 0-20.193 9.241-20.193 20.193 0 74.952-60.92 135.872-135.872 135.872s-135.872-60.92-135.872-135.872c0-11.294-9.241-20.193-20.193-20.193h-110.203c-11.294 0-20.193 9.241-20.193 20.193v231.016c0 11.294 9.241 20.193 20.193 20.193h1066.439c11.294 0 20.193-9.241 20.193-20.193v-231.016c0.342-10.952-8.898-20.193-19.85-20.193zM850.481 132.791h215.957v190.289h-1026.053v-190.289h70.503c9.925 87.615 84.877 156.064 175.23 156.064s165.305-68.449 175.23-156.064h38.674c9.925 87.615 84.877 156.064 175.23 156.064s165.305-68.449 175.23-156.064zM1671.529 92.064h-147.508c-11.294 0-20.193 9.241-20.193 20.193 0 74.952-60.92 135.872-135.872 135.872s-135.872-60.92-135.872-135.872c0-11.294-9.241-20.193-20.193-20.193h-124.92c-11.294 0-20.193 9.241-20.193 20.193v710.16c0 11.294 9.241 20.193 20.193 20.193h280.984c3.765 0 7.529-1.027 10.61-3.080 19.85-12.321 36.62-41.070 54.075-71.529 4.107-6.845 7.872-14.032 11.979-20.535 3.765-6.16 3.765-14.032 0.342-20.535s-10.267-10.267-17.797-10.267h-222.118v-240.599h340.877c4.449 0 8.556-1.369 11.979-3.765l125.604-92.064c5.134-3.765 8.214-9.925 8.214-16.428v-251.209c0-11.294-8.898-20.535-20.193-20.535zM1543.187 132.791h108.15v220.749l-111.914 82.139h-354.567c-11.294 0-20.193 9.241-20.193 20.193v281.326c0 11.294 9.241 20.193 20.193 20.193h207.059c-10.267 17.797-21.561 36.278-30.802 44.834h-253.947v-669.433h85.561c9.925 87.615 84.877 156.064 175.23 156.064s164.963-68.449 175.23-156.064z" />
<glyph unicode="&#xe905;" glyph-name="cart" horiz-adv-x="1109" d="M202.48-64c-34.274 0-66.439 22.146-76.985 56.947l-121.804 400.214c-13.182 42.711 11.073 87.53 53.256 100.713l186.661 56.947v333.775c0 41.656 33.747 75.403 75.403 75.403h714.48c41.656 0 75.403-33.747 75.403-75.403v-428.161c0-41.656-33.747-75.403-75.403-75.403h-121.277l41.129-134.987c6.327-20.564 4.218-42.183-5.8-61.166s-26.892-32.692-47.456-39.020l-673.351-205.644c-8.437-3.164-16.346-4.218-24.255-4.218zM81.203 246.575l74.348-244.136c7.909-25.837 35.329-40.601 61.166-32.692l673.351 205.644c25.837 7.909 40.074 35.329 32.692 61.166l-43.238 141.314h-97.549l15.291-49.565c1.055-4.218 1.055-8.437-1.055-12.128s-5.273-6.327-9.491-7.909l-564.202-172.952c-8.437-2.636-17.401 2.109-19.51 10.546l-17.928 59.057c-1.055 4.218-1.055 8.437 1.055 12.128s5.273 6.327 9.491 7.909l499.872 152.915h-186.134l-428.161-131.296zM219.881 199.118l8.964-28.474 534.146 163.46-8.964 28.474-534.146-163.46zM41.129 377.87l31.11-101.24 329.030 101.24h-76.985c-22.146 0-42.711 8.964-56.947 23.728-10.546 10.019-18.455 23.728-21.619 38.492l-204.589-62.22zM243.609 517.602l-177.17-54.311c-23.728-7.382-37.965-31.11-33.747-55.366l211.444 64.33v45.347zM288.956 424.272c7.909-7.382 18.455-12.128 30.056-12.128h714.48c24.255 0 43.765 19.51 43.765 43.765v428.688c0 24.255-19.51 43.765-43.765 43.765h-714.48c-24.255 0-43.765-19.51-43.765-43.765v-423.415c0 0 0-0.527 0-0.527v-2.109c0-13.71 5.273-25.837 13.71-34.274zM1015.563 541.858h-110.731c-8.964 0-15.819 6.855-15.819 15.819s6.855 15.819 15.819 15.819h110.731c8.964 0 15.819-6.855 15.819-15.819s-7.382-15.819-15.819-15.819zM827.32 541.858h-110.731c-8.964 0-15.819 6.855-15.819 15.819s6.855 15.819 15.819 15.819h110.731c8.964 0 15.819-6.855 15.819-15.819s-6.855-15.819-15.819-15.819zM639.605 541.858h-110.731c-8.964 0-15.819 6.855-15.819 15.819s6.855 15.819 15.819 15.819h110.731c8.964 0 15.819-6.855 15.819-15.819s-7.382-15.819-15.819-15.819zM451.361 541.858h-110.731c-8.964 0-15.819 6.855-15.819 15.819s6.855 15.819 15.819 15.819h110.731c8.964 0 15.819-6.855 15.819-15.819s-7.382-15.819-15.819-15.819zM424.997 654.698h-58.002c-23.201 0-42.183 18.982-42.183 42.183v47.456c0 23.201 18.982 42.183 42.183 42.183h58.002c23.201 0 42.183-18.982 42.183-42.183v-47.456c0-23.728-18.982-42.183-42.183-42.183zM366.995 754.884c-5.8 0-10.546-4.746-10.546-10.546v-47.456c0-5.8 4.746-10.546 10.546-10.546h58.002c5.8 0 10.546 4.746 10.546 10.546v47.456c0 5.8-4.746 10.546-10.546 10.546h-58.002z" />
<glyph unicode="&#xe906;" glyph-name="clock" d="M512-64c-281.888 0-512 230.112-512 512s230.112 512 512 512c281.888 0 512-230.112 512-512s-230.112-512-512-512zM512 928.935c-264.629 0-480.935-216.306-480.935-480.935s215.155-480.935 480.935-480.935c264.629 0 480.935 215.155 480.935 480.935 0 264.629-216.306 480.935-480.935 480.935zM363.578 252.404c-3.452 0-6.903 1.151-10.355 3.452-6.903 5.753-8.054 14.957-2.301 21.861l144.971 176.036v293.393c0 8.054 6.903 16.108 16.108 16.108 8.054 0 16.108-6.903 16.108-16.108v-299.146c0-3.452-1.151-6.903-3.452-10.355l-149.573-179.488c-3.452-3.452-8.054-5.753-11.506-5.753z" />
<glyph unicode="&#xe907;" glyph-name="close" d="M924-66c-0.6 0-1.4 0-2 0-2 2.6-3.8 5.4-6 7.6-131.4 131.4-263 263-394.4 394.4-2.2 2.2-4.8 4.4-7.6 7-2.8-2.6-5.2-4.8-7.6-7-131.4-131.4-263-263-394.4-394.4-2.2-2.2-4-5-6-7.6-0.6 0-1.4 0-2 0-34 34-68 68-102 102 0 0.6 0 1.4 0 2 2.6 2 5.4 3.8 7.6 6 131.4 131.4 263 263 394.4 394.4 2.2 2.2 4.4 4.8 7 7.6-2.6 2.8-4.8 5.2-7 7.6-131.4 131.4-263 263-394.4 394.4-2.2 2.2-5 4-7.6 6 0 0.6 0 1.4 0 2 34 34 68 68 102 102 0.6 0 1.4 0 2 0 2-2.6 3.8-5.4 6-7.6 131.4-131.4 263-263 394.4-394.4 2.2-2.2 4.8-4.4 7.6-7 2.8 2.6 5.2 4.8 7.6 7 131.4 131.4 263 263 394.4 394.4 2.2 2.2 4 5 6 7.6 0.6 0 1.4 0 2 0 34-34 68-68 102-102 0-0.6 0-1.4 0-2-2.6-2-5.4-3.8-7.6-6-131.4-131.4-263-263-394.4-394.4-2.2-2.2-4.4-4.8-7-7.6 2.6-2.8 4.8-5.2 7-7.6 131.4-131.4 263-263 394.4-394.4 2.2-2.2 5-4 7.6-6 0-0.6 0-1.4 0-2-34-34-68-68-102-102z" />
<glyph unicode="&#xe908;" glyph-name="courier" horiz-adv-x="1078" d="M1024 119.158c-107.158 56.842-189.474 88.842-262.737 101.053l7.579 10.316c3.579 3.579 5.474 9.053 3.579 14.316l-17.053 68c43.789 62.947 68.842 141.263 67.368 216v106.947c1.263 0.842 2.316 1.684 3.579 2.737 23.368 19.789 36 48.421 36 77.263 0 134.526-109.684 244.211-242.526 244.211h-159.789c-134.737 0-244.421-109.684-246.105-242.526 0-30.526 12.632-57.474 36-77.263 0.632-0.421 1.263-0.842 1.895-1.263v-110.105c0-74.947 26.105-153.474 70.737-216.421l-16.842-67.368c0-3.579 0-9.053 3.579-14.316l7.579-10.316c-73.263-12.211-155.368-44-262.737-101.053-34.316-16.211-54.105-50.526-54.105-88.211v-77.263c0-10.737 7.158-17.895 17.895-17.895h1041.895c10.737 0 17.895 7.158 17.895 17.895v77.263c0.211 36-21.263 70.105-53.684 88zM727.579 277.263l7.158-32.421-18.316-25.263c-1.263-1.053-2.316-2.105-3.158-3.579l-98.737-136.632-48.421 109.474c52.211 6.316 99.368 30.526 138.737 65.895 7.789 7.158 15.368 14.737 22.737 22.526zM802.947 667.158c-0.421-0.421-1.053-0.842-1.474-1.263-2.105-0.421-4-1.263-5.684-2.316-7.789-5.895-16-9.474-24.632-11.158-6.737-1.053-13.684-0.842-20.211 0.421-128.842 24.421-259.158 26.737-384.211 6.737-13.895-2.105-27.789-4.211-41.474-6.737-2.316-0.211-4.421-0.421-6.737-0.421-14.526 0.211-28.421 4.211-40 13.053-10.737 7.158-17.895 17.895-21.474 28.842l77.263 14.316c134.737 25.053 273.053 25.053 411.368 0l76.632-14.316c-4-10.316-10.737-19.579-19.368-27.158zM458.105 924h159.789c110.105 0 200.632-85.895 208-194.105l-74.947 12.632c-141.895 25.053-285.684 25.053-424 0l-74.947-12.632c7.368 108.421 97.684 194.105 206.105 194.105zM287.368 620.421c14.316-3.579 30.526-5.474 46.737-1.895 67.158 12.421 134.947 18.737 203.368 18.947 68.421 0 137.263-6.316 206.105-18.947 4.842-1.263 9.053-1.684 12.842-1.684 11.368-0.842 23.158 0.842 33.895 3.579v-91.579c0-78.316-26.947-148-67.158-200.842l-1.053-0.421-5.474-5.474c-9.053-12-18.526-22.947-28.632-32.842-44.632-41.474-98.316-65.895-149.263-65.895v0c-1.895 0-3.789 0-5.684 0-30.316 1.053-61.474 10.526-90.947 26.947-29.263 16.842-56.842 41.053-81.263 71.789l-5.474 5.474-1.053 0.421c-40.421 52.842-67.158 122.526-67.158 200.842v91.579zM512 189.053l-48.421-109.474-98.737 136.632c-0.632 0.632-1.263 1.053-1.895 1.684l-19.789 26.947 7.158 32.421c2.526-2.526 4.842-5.263 7.368-7.579 42.316-43.158 94.947-73.474 154.316-80.632zM1041.895-28h-1005.895v59.368c0 23.368 12.632 44.842 34.105 55.789 114.526 60.842 196.842 91.368 270.316 100.421l112.211-154.316c2.737-4.211 6.737-6.316 11.789-6.947 0.842-0.211 1.684-0.211 2.526-0.211 0 0 1.895 0 1.895-1.895 5.474 0 12.632 5.474 14.316 10.737l55.789 125.474 23.789-52.211 31.789-71.579c1.895-5.474 7.158-10.737 14.316-10.737h1.895c5.474 0 10.737 3.579 14.316 7.158l113.474 156c73.263-10.947 157.053-41.474 269.263-100.211 21.474-12.632 34.105-34.105 34.105-57.474v-59.368zM502.947 780.421h71.789c10.737 0 17.895 7.158 17.895 17.895v89.895c0 10.737-7.158 17.895-17.895 17.895h-71.789c-10.737 0-17.895-7.158-17.895-17.895v-89.895c0-10.737 7.158-17.895 17.895-17.895zM521.053 870.105h36v-53.895h-36v53.895z" />
<glyph unicode="&#xe909;" glyph-name="geo" horiz-adv-x="754" d="M376.982 407.45c-96.251 0-174.677 78.426-174.677 175.568 0 96.251 78.426 175.568 174.677 175.568s175.568-79.318 175.568-175.568c0-96.251-79.318-175.568-175.568-175.568zM376.982 727.394c-79.318 0-144.376-65.058-144.376-144.376s65.058-144.376 144.376-144.376 144.376 65.058 144.376 144.376-65.058 144.376-144.376 144.376zM376.982-64c-4.456 0-8.912 1.782-11.586 5.347-15.151 17.824-365.396 438.475-365.396 641.671 0 207.652 169.33 376.982 376.982 376.982s376.982-169.33 376.982-376.982c0-203.196-350.245-623.847-365.396-641.671-2.674-3.565-7.13-5.347-11.586-5.347zM376.982 928.808c-190.719 0-345.789-155.070-345.789-345.789 0-172.003 284.296-531.161 345.789-606.914 62.385 76.644 345.789 434.91 345.789 606.914 0 190.719-155.070 345.789-345.789 345.789z" />
<glyph unicode="&#xe90a;" glyph-name="gift" horiz-adv-x="1026" d="M961.502 769.302h-59.293c0 0 1.603 0 1.603 0 92.945 43.268 38.46 190.698-48.075 190.698-11.218 0-24.038-3.205-36.858-8.013-84.933-40.063-158.648-128.2-193.903-176.275-9.615 38.46-54.485 65.703-110.573 65.703-57.69 0-104.163-28.845-110.573-68.908-35.255 46.473-110.573 137.815-197.108 179.48-12.82 4.808-25.64 8.013-36.858 8.013-86.535 0-141.020-147.43-48.075-190.698 0 0 1.603 0 1.603 0h-59.293c-35.255 0-64.1-28.845-64.1-64.1v-705.102c0-35.255 28.845-64.1 64.1-64.1h897.402c35.255 0 64.1 28.845 64.1 64.1v705.102c0 35.255-28.845 64.1-64.1 64.1zM993.552 705.202v-336.526h-464.726v368.576h432.676c17.628 0 32.050-14.423 32.050-32.050zM833.302 923.142c8.013 3.205 16.025 4.808 22.435 4.808 30.448 0 56.088-32.050 62.498-62.498 3.205-14.423 6.41-49.678-27.243-65.703-40.063-19.23-104.163-28.845-185.89-28.845-16.025 0-28.845 0-41.665 1.603 35.255 46.473 97.753 116.983 169.865 150.635zM514.404 809.365c38.46 0 72.113-17.628 78.523-40.063h-157.045c6.41 22.435 40.063 40.063 78.523 40.063zM107.368 865.452c6.41 30.448 32.050 62.498 62.498 62.498 8.013 0 14.423-1.603 22.435-4.808 70.51-33.653 134.61-104.163 171.468-150.635-12.82 0-27.243-1.603-41.665-1.603-81.728 0-147.43 9.615-185.89 28.845-35.255 16.025-32.050 51.28-28.845 65.703zM64.1 737.252h432.676v-368.576h-464.726v336.526c0 17.628 14.423 32.050 32.050 32.050zM32.050 0.1v336.526h464.726v-368.576h-432.676c-17.628 0-32.050 14.423-32.050 32.050zM961.502-31.95h-432.676v368.576h464.726v-336.526c0-17.628-14.423-32.050-32.050-32.050z" />
<glyph unicode="&#xe90b;" glyph-name="heart" horiz-adv-x="1164" d="M1067.988 862.933c-60.698 60.698-141.055 93.873-226.818 93.873s-166.366-33.421-227.064-94.119l-31.701-31.701-32.192 32.192c-60.698 60.698-141.546 94.364-227.31 94.364-85.518 0-166.12-33.421-226.573-93.873-60.698-60.698-94.119-141.301-93.873-227.064 0-85.763 33.666-166.12 94.364-226.818l461.5-461.5c6.389-6.389 14.99-9.83 23.345-9.83s16.956 3.195 23.345 9.584l462.483 460.763c60.698 60.698 94.119 141.301 94.119 227.064 0.246 85.763-32.929 166.366-93.627 227.064zM1020.805 455.741l-439.138-437.418-438.155 438.155c-48.165 48.165-74.705 112.058-74.705 180.128s26.294 131.963 74.459 179.882c47.919 47.919 111.812 74.459 179.636 74.459 68.070 0 132.208-26.54 180.373-74.705l55.537-55.537c13.024-13.024 33.912-13.024 46.936 0l55.046 55.046c48.165 48.165 112.303 74.705 180.128 74.705s131.717-26.54 179.882-74.459c48.165-48.165 74.459-112.058 74.459-180.128 0.246-68.070-26.294-131.963-74.459-180.128z" />
<glyph unicode="&#xe90c;" glyph-name="like" horiz-adv-x="1063" d="M921.803 612.183h-242.427v177.393c0 67.647-19.452 116.133-57.776 144.295-60.97 44.711-145.456 18.872-148.94 17.71-7.258-2.323-12.194-9-12.194-16.549v-188.425c0-127.456-141.972-203.813-196.264-228.201v3.194c0 15.968-12.775 28.743-28.743 28.743h-206.716c-15.968 0-28.743-12.775-28.743-28.743v-540.307c0-15.678 13.065-28.743 28.743-28.743h206.426c15.968 0 28.743 12.775 28.743 28.743v2.903c25.84-29.614 63.873-48.195 105.971-48.195h461.047c96.68 0 158.231 50.518 169.263 138.488l62.131 394.27c0 0.871 0.29 1.742 0.29 2.613 0 77.809-63.292 140.811-140.811 140.811zM229.072-12.611h-194.232v528.113h194.232v-528.113zM965.643 79.714v-0.581c-11.033-89.422-79.261-108.003-134.714-108.003h-461.047c-58.357 0-105.971 47.614-105.971 105.971v403.561c18.872 7.549 64.163 27.582 109.745 61.26 79.551 58.357 121.359 129.198 121.359 204.974v174.78c22.356 4.355 70.841 10.162 105.971-15.678 28.743-21.194 43.259-60.389 43.259-116.133v-194.813c0-9.581 7.839-17.42 17.42-17.42h259.847c58.066 0 105.39-46.743 105.971-104.81l-61.841-393.109z" />
<glyph unicode="&#xe90d;" glyph-name="mail" horiz-adv-x="1440" d="M1324.278-64h-1208.239c-64.127 0-116.040 51.913-116.040 116.040v791.92c0 64.127 51.913 116.040 116.040 116.040h1208.239c64.127 0 116.040-51.913 116.040-116.040v-791.92c0-64.127-51.913-116.040-116.040-116.040zM116.040 913.177c-38.68 0-69.217-31.555-69.217-69.217v-791.92c0-38.68 31.555-69.217 69.217-69.217h1208.239c38.68 0 69.217 31.555 69.217 69.217v791.92c0 38.68-31.555 69.217-69.217 69.217h-1208.239zM720.668 330.942c-30.537 0-62.091 10.179-85.503 30.537l-593.431 518.107c-10.179 8.143-11.197 22.394-3.054 32.573s23.412 10.179 32.573 2.036l593.431-517.089c29.519-25.447 79.396-25.447 109.932 0l593.431 517.089c9.161 8.143 24.429 7.125 32.573-2.036s7.125-24.429-2.036-32.573l-593.431-517.089c-23.412-21.376-53.948-31.555-84.485-31.555z" />
<glyph unicode="&#xe90e;" glyph-name="call1" d="M823.258-64c-42.711 0-93.965 10.678-150.557 32.033-123.862 46.982-259.47 138.811-380.129 260.538-121.727 120.659-213.556 256.267-260.538 380.129-42.711 112.117-42.711 205.014 0 247.725 6.407 6.407 12.813 12.813 19.22 19.22 37.372 40.576 81.151 86.49 139.879 84.355 39.508-2.136 79.016-26.694 118.523-75.812 117.456-145.218 64.067-197.539 3.203-257.335l-10.678-10.678c-9.61-9.61-28.83-56.592 146.286-231.708 57.66-57.66 105.71-99.303 145.218-124.93 24.559-16.017 68.338-40.576 86.49-22.423l10.678 10.678c59.796 61.931 112.117 114.252 257.335-3.203 49.118-39.508 73.677-77.948 75.812-118.523 2.136-57.66-43.779-101.439-84.355-139.879-6.407-6.407-12.813-12.813-19.22-18.152-21.356-21.356-55.525-32.033-97.168-32.033zM186.861 925.831c-41.643 0-77.948-39.508-111.049-73.677-6.407-7.474-12.813-13.881-19.22-20.288-32.033-32.033-28.83-114.252 8.542-211.42 43.779-119.591 133.472-249.86 251.996-367.316 117.456-117.456 247.725-207.149 367.316-251.996 97.168-36.304 179.387-39.508 211.42-8.542 6.407 6.407 12.813 12.813 20.288 19.22 35.237 33.101 75.812 71.541 73.677 114.252-1.068 28.83-22.423 59.796-62.999 92.897-120.659 97.168-154.828 62.999-211.42 6.407l-10.678-10.678c-26.694-26.694-70.473-21.356-129.201 17.084-40.576 26.694-91.829 70.473-150.557 129.201-145.218 145.218-192.2 234.911-146.286 280.826l10.678 10.678c57.66 56.592 91.829 89.693-6.407 211.42-33.101 40.576-64.067 61.931-92.897 62.999-2.136-1.068-2.136-1.068-3.203-1.068z" />
<glyph unicode="&#xe90f;" glyph-name="range" horiz-adv-x="995" d="M527.244 460.899v470.319c0 15.99-12.792 28.782-28.782 28.782s-28.782-12.792-28.782-28.782v-470.319c-66.732-13.432-117.26-72.488-117.26-143.27s50.528-129.839 117.26-143.27v-209.362c0-15.99 12.792-28.782 28.782-28.782s28.782 12.792 28.782 28.782v209.362c66.732 13.432 117.26 72.488 117.26 143.27 0 70.569-50.315 129.839-117.26 143.27zM498.462 229.15c-48.823 0-88.478 39.655-88.478 88.478s39.655 88.478 88.478 88.478c48.823 0 88.478-39.655 88.478-88.478s-39.655-88.478-88.478-88.478zM174.824 702.241v228.977c0 15.99-12.792 28.782-28.782 28.782s-28.782-12.792-28.782-28.782v-228.977c-66.732-13.432-117.26-72.488-117.26-143.27s50.528-129.839 117.26-143.27v-450.705c0-15.99 12.792-28.782 28.782-28.782s28.782 12.792 28.782 28.782v450.918c66.732 13.432 117.26 72.488 117.26 143.27s-50.528 129.626-117.26 143.057zM146.042 470.493c-48.823 0-88.478 39.655-88.478 88.478s39.655 88.478 88.478 88.478 88.478-39.655 88.478-88.478-39.868-88.478-88.478-88.478zM877.532 702.241v228.977c0 15.99-12.792 28.782-28.782 28.782s-28.782-12.792-28.782-28.782v-228.977c-66.732-13.432-117.26-72.488-117.26-143.27s50.528-129.839 117.26-143.27v-450.918c0-15.99 12.792-28.782 28.782-28.782s28.782 12.792 28.782 28.782v451.131c66.732 13.432 117.26 72.488 117.26 143.27s-50.315 129.626-117.26 143.057zM848.75 470.493c-48.823 0-88.478 39.655-88.478 88.478s39.655 88.478 88.478 88.478c48.823 0 88.478-39.655 88.478-88.478s-39.655-88.478-88.478-88.478z" />
<glyph unicode="&#xe910;" glyph-name="shevron" horiz-adv-x="1023" d="M937.566 960h-273.307c-52.821 0-92.236-16.807-131.651-56.222-6.603-6.603-6.603-17.407 0-24.209 6.603-6.603 17.407-6.603 24.209 0 33.413 33.413 63.425 46.218 107.442 46.218h273.107c28.211 0 51.22-23.009 51.22-51.22v-273.107c0-44.017-13.005-74.229-46.218-107.442l-506.798-507.798c-19.408-19.408-53.021-19.408-72.428 0l-313.923 313.923c-9.604 9.604-15.006 22.609-15.006 36.214s5.402 26.61 15.006 36.214l458.179 457.579c7.003-1.801 14.005-3.601 21.408-5.602 69.427-18.607 124.249-37.815 165.064-55.021-8.003-14.806-12.605-31.612-12.605-48.619 0-56.422 46.018-102.44 102.44-102.44s102.44 46.018 102.44 102.44-46.018 102.44-102.44 102.44c-9.404 0-17.007-7.603-17.007-17.007s7.603-17.007 17.007-17.007c37.615 0 68.227-30.612 68.227-68.227s-30.612-68.227-68.227-68.227-68.227 30.612-68.227 68.227c0 12.205 3.401 24.209 9.604 34.814 29.612-14.206 48.019-26.010 55.422-33.613-3.201-0.8-8.003-1.801-15.206-2.601-9.404-0.8-16.406-9.204-15.406-18.607 0.8-8.803 8.203-15.606 17.007-15.606 0.4 0 1 0 1.601 0 10.404 1 42.417 3.801 48.619 26.61 16.807 62.825-229.69 132.252-279.109 145.457-76.23 20.408-149.058 34.213-205.48 39.215-69.427 6.002-103.040-1.801-109.443-25.61-3.001-11.404-11.204-41.616 127.25-96.238 8.803-3.401 18.607 0.8 22.209 9.604 3.401 8.803-0.8 18.607-9.604 22.209-66.826 26.41-94.637 45.618-103.44 54.821 21.008 6.202 93.036 4.402 209.082-22.009l-443.573-442.773c-16.206-16.206-25.010-37.615-25.010-60.424s8.803-44.217 25.010-60.424l313.923-313.923c16.206-16.206 37.615-25.010 60.424-25.010s44.217 8.803 60.424 25.010l506.798 507.798c39.415 39.415 56.222 78.831 56.222 131.651v273.107c0 47.218-38.215 85.433-85.233 85.433zM885.946 335.556c-8.203 4.802-18.607 2.001-23.409-6.002l-195.676-333.93c-14.206-24.41-45.418-32.813-69.227-19.208l-38.215 24.61c-8.003 5.202-18.407 2.801-23.609-5.002-5.202-8.003-2.801-18.407 5.002-23.609l38.815-25.21c13.405-7.803 28.011-11.404 42.617-11.404 29.612 0 58.223 15.206 74.029 42.617l195.676 333.73c4.802 8.203 2.001 18.607-6.002 23.409zM408.159 464.807v-239.093c0-9.404 7.603-17.007 17.007-17.007s17.007 7.603 17.007 17.007v239.093c0 9.404-7.603 17.007-17.007 17.007-9.204 0.2-17.007-7.603-17.007-17.007zM510.599 413.587c0-18.807 15.406-34.213 34.213-34.213s34.213 15.406 34.213 34.213c0 18.807-15.406 34.213-34.213 34.213s-34.213-15.406-34.213-34.213zM271.706 311.147c0-18.807 15.406-34.213 34.213-34.213s34.213 15.406 34.213 34.213c0 18.807-15.406 34.213-34.213 34.213-19.007 0-34.213-15.406-34.213-34.213z" />
<glyph unicode="&#xe911;" glyph-name="shop" horiz-adv-x="896" d="M831.305 674.663c-1.235 16.058-14.823 29.645-32.116 29.645h-160.579v64.232c1.235 104.994-85.23 191.46-190.224 191.46-106.229 0-191.46-86.466-191.46-191.46v-64.232h-160.579c-16.058 0-30.881-12.352-32.116-29.645l-64.232-704.077c-1.235-8.647 2.47-17.293 8.647-24.704 6.176-6.176 14.823-9.882 23.469-9.882h831.305c8.647 0 17.293 3.706 23.469 9.882s8.647 16.058 8.647 24.704l-64.232 704.077zM319.923 768.54c0 70.408 56.82 128.463 128.463 128.463s128.463-56.82 128.463-128.463v-64.232h-256.926v64.232zM66.702 0.232l58.055 639.846h130.934v-72.878c-18.528-11.117-32.116-32.116-32.116-55.585 0-35.821 28.41-64.232 64.232-64.232s64.232 28.41 64.232 64.232c0 23.469-12.352 44.468-32.116 55.585v72.878h255.691v-72.878c-18.528-11.117-32.116-30.881-32.116-55.585 0-35.821 28.41-64.232 64.232-64.232s64.232 28.41 64.232 64.232c0 23.469-12.352 44.468-32.116 55.585v72.878h130.934l58.055-639.846h-762.133z" />
<glyph unicode="&#xe912;" glyph-name="skirt" d="M896.136 109.249l-49.313 548.112c-3.273 43.858-28.366 82.479-67.205 103.207l-43.203 23.129c-0.218 13.092-1.964 49.749-12.437 92.952 0 0 0 0.218 0 0.218v0c0 0.436-0.218 0.655-0.218 1.091-2.837 10.473-9.601 19.42-20.074 26.838-43.858 31.202-90.552 44.949-126.773 51.058-34.039 5.673-95.134 5.673-129.173 0-36.221-5.891-82.915-19.856-126.773-51.058-10.473-7.419-17.238-16.365-20.074-26.62-0.218-0.655-0.436-1.091-0.436-1.746-10.473-42.985-12.219-79.86-12.437-92.952l-43.639-22.911c-38.839-20.729-63.932-59.35-67.205-102.989l-49.313-548.548c-1.091-14.837 1.527-29.675 7.855-42.985l6.982-15.056c2.618-1.964 5.237-3.928 7.637-6.11 6.546-3.055 13.528-5.237 20.947-6.328 1.746-0.218 3.055-0.873 4.364-1.527l33.821-6.328c7.201 1.091 14.401 1.964 21.82 2.837 0.655 0.218 1.309 0.436 1.964 0.655 5.891 6.328 10.692 13.746 14.619 21.602 4.146 8.946 6.764 18.765 7.637 28.584l25.529 231.726c0.655-81.824 0.218-173.685-3.491-231.726-0.655-11.346 1.964-22.038 7.201-31.42 10.473-14.183 28.584-21.82 44.294-29.893 121.1-30.329 248.745-30.111 369.844 1.091 0.218 0.218 0.655 0.218 0.873 0.436 0.436 0.218 1.091 0.436 1.527 0.655 1.309 0.655 2.182 0.655 3.928 0.873 1.527 0.873 3.055 1.746 4.582 2.618 8.291 5.455 15.71 12.437 24.438 17.456 8.073 10.692 12.655 24.22 11.783 38.403-3.491 58.040-3.928 149.902-3.491 231.726l25.529-231.726c1.527-17.238 8.291-33.602 19.201-46.912 6.982-2.4 14.183-4.364 21.165-6.11 2.618-0.218 5.237-0.218 7.637-0.436l36.875 6.982c9.382 3.928 18.983 7.637 27.493 13.092l6.982 14.837c6.982 13.31 9.819 28.147 8.728 43.203zM710.887 827.991c2.837-20.074 3.491-36.003 3.709-43.858-38.403-28.802-89.461-48.44-130.918-60.877 13.31 8.291 27.493 17.238 41.457 27.056 41.676 29.020 70.041 54.768 85.752 77.678zM512.109 707.328c-14.619 7.637-58.477 31.639-100.589 61.095-29.893 20.729-52.804 40.148-68.296 57.168 41.239 26.402 84.661 37.312 116.954 41.676 30.111 3.928 73.969 4.146 104.298 0 32.293-4.364 75.278-15.274 116.517-41.676-15.274-17.019-38.403-36.439-68.078-57.168-42.33-29.457-86.406-53.458-100.807-61.095zM321.405 871.63c0 0.218 0 0.218 0 0 0 0.218 0 0.218 0 0.218s0 0 0 0.218c0 0 0 0 0 0 1.309 5.455 5.455 10.473 11.783 15.056 37.094 26.402 76.805 39.276 109.099 45.385 39.494 7.637 99.934 7.637 139.646 0 32.293-6.328 71.787-19.201 108.88-45.385 6.328-4.582 10.255-9.601 11.783-15.056 0 0 0 0 0 0 0-0.218 0-0.218 0-0.436 0 0 0 0 0 0 1.964-7.855-1.091-17.674-8.291-29.020-46.258 30.111-94.261 42.112-129.391 46.476-27.929 3.491-77.678 3.491-105.826 0-35.348-4.582-83.351-16.365-129.609-46.476-7.201 11.346-10.037 21.165-8.073 29.020zM313.113 827.991c15.492-22.911 44.076-48.658 85.752-77.678 13.965-9.819 28.147-18.765 41.457-27.056-41.457 12.437-92.516 32.075-130.918 60.877 0.218 7.637 1.091 23.565 3.709 43.858zM868.425 75.21l-6.328-13.528-57.168-10.692c-8.291 10.037-13.528 22.474-14.619 35.566 0 0 0 0.218 0 0.218l-44.73 405.847c-0.655 5.673-5.673 10.037-11.346 9.601-5.673-0.218-10.255-4.8-10.473-10.692 0-2.837-6.764-283.657 0.873-408.465 1.091-16.801-10.037-32.293-26.402-36.657-121.754-32.075-250.491-32.075-372.245 0-16.365 4.364-27.493 19.638-26.402 36.657 7.637 124.809 0.873 405.629 0.873 408.465-0.218 5.673-4.8 10.473-10.473 10.692-5.891 0.218-10.692-3.928-11.346-9.601l-44.73-405.847c0 0 0-0.218 0-0.218-0.655-7.419-2.618-14.619-5.673-21.383-2.4-5.019-5.455-9.819-8.946-14.183l-57.168 10.692-6.328 13.528c-4.8 10.037-6.764 21.165-5.891 31.857l49.094 548.766c2.837 36.439 23.565 68.296 55.859 85.533l43.858 23.565c33.166-24.438 77.896-45.167 132.882-61.968 1.964-0.655 4.146-1.309 6.11-1.746v-306.131c0-6.11 4.8-10.91 10.91-10.91s10.91 4.8 10.91 10.91v300.021c28.147-7.201 48.003-10.692 50.404-10.91 0.655-0.218 1.309-0.218 1.964-0.218v0c0.655 0 1.309 0 1.964 0.218 2.4 0.436 22.256 3.709 50.404 10.91v-300.021c0-6.11 4.8-10.91 10.91-10.91s10.91 4.8 10.91 10.91v306.131c1.964 0.655 4.146 1.091 6.11 1.746 54.986 16.583 99.716 37.53 132.882 61.968l44.076-23.565c32.075-17.238 53.022-49.313 55.859-85.752l49.313-548.112c0.873-11.128-1.091-22.256-5.891-32.293z" />
<glyph unicode="&#xe913;" glyph-name="store" d="M253.309 127.885h-146.473c-8.137 0-13.387-5.25-13.387-13.387v-103.424c0-8.137 5.25-13.387 13.387-13.387h146.473c8.137 0 13.387 5.25 13.387 13.387v103.424c0 8.137-5.25 13.387-13.387 13.387zM239.922 24.461h-119.699v76.649h119.699v-76.649zM450.969 127.885h-146.473c-8.137 0-13.387-5.25-13.387-13.387v-103.424c0-8.137 5.25-13.387 13.387-13.387h146.473c8.137 0 13.387 5.25 13.387 13.387v103.424c0 8.137-6.825 13.387-13.387 13.387zM437.582 24.461h-119.699v76.649h119.699v-76.649zM645.742 127.885h-146.473c-8.137 0-13.387-5.25-13.387-13.387v-103.424c0-8.137 5.25-13.387 13.387-13.387h146.473c8.137 0 13.387 5.25 13.387 13.387v103.424c0 8.137-5.25 13.387-13.387 13.387zM632.355 24.461h-119.699v76.649h119.699v-76.649zM992.5 872.589c0 1.312 1.312 1.312 1.312 2.625v71.137c0 8.137-5.25 13.387-13.387 13.387h-935.276c-8.137 0-13.387-5.25-13.387-13.387v-71.137c0 0 0 0 0-1.312l-25.462-248.584c0-3.937 1.312-8.137 3.937-10.762s6.825-3.937 9.45-3.937h12.075v-661.229c0-8.137 5.25-13.387 13.387-13.387h933.964c8.137 0 13.387 5.25 13.387 13.387v660.967h12.075c3.937 0 8.137 1.312 9.45 3.937 2.625 2.625 3.937 6.825 3.937 10.762l-25.462 247.534zM58.537 932.963h908.501v-44.362h-908.501v44.362zM694.042-35.913h-635.505v200.285h635.767v-200.285zM694.042 189.834h-635.505v420.52h635.767v-420.52zM721.079-37.225v647.58h244.647v-647.842h-244.647zM979.113 637.391h-944.726l22.837 223.122h909.814l22.837-223.122h-10.762zM789.59 262.284c0-8.118-6.581-14.7-14.7-14.7s-14.7 6.581-14.7 14.7c0 8.118 6.581 14.7 14.7 14.7s14.7-6.581 14.7-14.7zM177.973 262.284l-49.612 49.612c-5.25 5.25-13.387 5.25-18.9 0s-5.25-13.387 0-18.9l49.612-49.612c2.625-2.625 6.825-3.937 9.45-3.937 3.937 0 6.825 1.312 9.45 3.937 5.512 5.512 5.512 13.65 0 18.9zM239.922 271.733l-100.799 100.799c-5.25 5.25-13.387 5.25-18.9 0s-5.25-13.387 0-18.9l100.799-100.799c2.625-2.625 6.825-3.937 9.45-3.937s6.825 1.312 9.45 3.937c5.25 5.512 5.25 13.65 0 18.9z" />
<glyph unicode="&#xe914;" glyph-name="telegram" d="M1026 870c0-4.6 0-9.4 0-14-0.8-1.8-1.8-3.6-2-5.4-9.6-46-19.2-91.8-28.8-137.8-38.4-184.8-76.8-369.4-115.2-554.2-9.2-44.6-18.4-89.2-28-133.8-3.6-16.6-16.8-27.2-31.2-24-6.6 1.4-13 5.2-18.6 9.2-75 54.2-150 108.6-225 163-23.4 17-38.4 16.4-61-2-40-32.6-80-65.2-120-97.8-21.6-17.6-42.4-11.6-50.6 14.8-28.8 92.8-57.8 185.4-86.4 278.2-2.2 7-5.6 11-12.6 13.6-73 27-145.8 54.4-218.8 81.4-11.8 4.4-21.2 10.6-25.8 22.8 0 4.6 0 9.4 0 14 5.4 11 14.4 17.2 25.8 21.6 318 122.4 635.8 245.2 953.8 367.8 22.4 8.6 33.6 4.2 44.4-17.4zM310.4 382.4c0.6-3.2 0.8-7.8 2.2-12.4 16.2-57 32.4-113.8 48.6-170.8 2-7 5.2-12.4 13.6-11.6s10.2 7 11.2 14.2c3.4 25.8 7.6 51.4 10 77.2 2.8 28.6 14.8 51.2 36.2 70.8 120.6 111 240.4 223 360.4 334.6 3.6 3.4 8 6.4 10.6 10.6 1.6 2.4 2 7.4 0.4 9.6s-6.2 3-9.4 2.6c-2.6-0.2-5.2-2.8-7.8-4.4-106.2-65.4-212.6-131-318.8-196.4-44-27-87.8-54.2-131.8-81-15.6-9.8-24.4-23.2-25.4-43z" />
<glyph unicode="&#xe915;" glyph-name="user" d="M508.289 408.24c1.060 0 2.121 0 3.393 0 0.424 0 0.848 0 1.272 0 0.636 0 1.484 0 2.121 0 62.131 1.060 112.388 22.902 149.497 64.676 81.64 92.031 68.069 249.797 66.584 264.853-5.301 113.024-58.738 167.097-102.845 192.331-32.868 18.873-71.25 29.051-114.084 29.899h-1.484c-0.212 0-0.636 0-0.848 0h-1.272c-23.538 0-69.765-3.817-114.084-29.051-44.531-25.234-98.816-79.308-104.118-193.18-1.484-15.056-15.056-172.823 66.584-264.853 36.897-41.774 87.153-63.616 149.285-64.676zM349.038 732.468c0 0.636 0.212 1.272 0.212 1.696 6.998 152.041 114.932 168.369 161.16 168.369h0.848c0.424 0 1.060 0 1.696 0 57.254-1.272 154.586-24.598 161.16-168.369 0-0.636 0-1.272 0.212-1.696 0.212-1.484 15.056-145.68-52.377-221.595-26.719-30.111-62.343-44.955-109.207-45.379-0.424 0-0.636 0-1.060 0v0c-0.424 0-0.636 0-1.060 0-46.651 0.424-82.488 15.268-108.995 45.379-67.221 75.491-52.801 220.322-52.589 221.595zM947.449 146.568c0 0.212 0 0.424 0 0.636 0 1.696-0.212 3.393-0.212 5.301-1.272 41.986-4.029 140.166-96.060 171.55-0.636 0.212-1.484 0.424-2.121 0.636-95.636 24.386-175.155 79.52-176.003 80.156-12.935 9.118-30.748 5.937-39.866-6.998s-5.937-30.748 6.998-39.866c3.605-2.545 88.002-61.283 193.604-88.426 49.408-17.6 54.922-70.401 56.406-118.749 0-1.908 0-3.605 0.212-5.301 0.212-19.085-1.060-48.56-4.453-65.524-34.352-19.509-169.006-86.941-373.848-86.941-203.994 0-339.496 67.645-374.060 87.153-3.393 16.964-4.877 46.439-4.453 65.524 0 1.696 0.212 3.393 0.212 5.301 1.484 48.348 6.998 101.149 56.406 118.749 105.602 27.143 189.999 86.093 193.604 88.426 12.935 9.118 16.116 26.931 6.998 39.866s-26.931 16.116-39.866 6.998c-0.848-0.636-79.944-55.77-176.003-80.156-0.848-0.212-1.484-0.424-2.121-0.636-92.031-31.596-94.787-129.776-96.060-171.55 0-1.908 0-3.605-0.212-5.301 0-0.212 0-0.424 0-0.636-0.212-11.027-0.424-67.645 10.815-96.060 2.121-5.513 5.937-10.179 11.027-13.359 6.362-4.241 158.827-101.361 413.926-101.361s407.564 97.332 413.926 101.361c4.877 3.181 8.906 7.846 11.027 13.359 10.603 28.203 10.391 84.821 10.179 95.848z" />
<glyph unicode="&#xe916;" glyph-name="viber_icon" horiz-adv-x="935" d="M0.696 474.435c0 16.209 0 32.487 0 48.696 0.209 2.157 0.417 4.313 0.626 6.47 2.435 29.078 4.104 58.226 7.443 87.235 2.922 25.53 7.374 50.852 11.548 76.243 4.8 29.426 13.635 57.6 27.339 84.174 25.67 49.809 64 87.235 112.139 115.13 49.043 28.452 102.47 44.591 157.983 54.33 33.252 5.843 66.643 9.878 100.383 11.478 5.983 0.278 11.965 0.696 18.017 1.043 16.487 0 32.904 0 49.391 0 1.113-0.209 2.296-0.417 3.409-0.487 21.287-1.461 42.574-2.435 63.791-4.383 36.035-3.2 71.722-8.557 107.13-16.070 42.435-8.974 83.339-22.33 121.391-43.617 58.643-32.696 100.035-80.209 121.461-143.93 19.339-57.461 27.965-117.009 31.443-177.322 0.487-8.417 0.904-16.835 1.391-25.322 0-16.696 0-33.391 0-50.087-0.209-2.435-0.417-4.8-0.626-7.235-2.157-29.704-3.339-59.478-6.678-89.043-4.661-42.157-15.165-83.061-30.957-122.504-10.087-25.113-21.565-49.461-38.261-71.026-27.339-35.27-62.539-59.826-103.443-76.8-41.461-17.183-84.939-26.157-129.391-30.33-31.165-2.922-62.4-4.8-93.635-6.261-36.939-1.739-73.948-2.504-110.887-3.896-2.017-0.070-4.522-1.183-5.913-2.643-6.052-6.122-11.478-12.73-17.6-18.783-41.322-41.183-82.713-82.226-124.035-123.339-3.617-3.548-7.096-7.235-10.643-10.852-13.426 0-26.922 0-40.348 0 0 1.252 0.070 2.574 0.070 3.826 0 57.739-0.139 115.409 0.070 173.148 0 6.052-1.948 9.6-7.443 11.548-10.087 3.617-20.035 7.791-30.261 11.13-32.070 10.296-60.313 26.991-84.591 50.296-28.313 27.13-49.043 59.409-63.374 95.722-21.774 55.096-31.513 112.835-35.548 171.687-0.487 7.235-0.904 14.539-1.391 21.774zM267.757 2.783c1.67 1.53 2.643 2.435 3.617 3.409 13.635 13.287 27.409 26.365 40.765 39.861 22.957 23.235 45.983 46.47 68.383 70.261 11.339 12.104 24.557 18.643 40.835 19.27 43.757 1.67 87.583 3.13 131.339 4.87 36.452 1.461 72.904 4.104 108.939 10.435 35.2 6.191 69.217 16 100.87 32.904 34.017 18.157 60.8 43.826 78.33 78.4 21.496 42.296 34.922 87.165 41.878 133.983 5.357 35.965 7.374 72.139 8.139 108.452 1.113 49.948-1.809 99.617-10.226 148.939-4.591 27.061-10.365 53.913-18.922 80-14.261 43.478-39.304 79.235-76.661 106.017-28.313 20.383-59.687 34.435-92.87 44.591-28.73 8.765-58.157 14.47-87.791 18.991-30.47 4.661-61.078 8.209-91.826 10.087-35.757 2.157-71.583 2.296-107.339-0.417-35.061-2.643-69.843-7.304-104.209-14.748-41.183-8.904-80.626-22.539-117.565-43.13-62.609-34.991-102.817-86.748-117.009-157.565-8.696-43.27-14.748-87.026-18.365-131.061-3.548-42.713-4.104-85.426-0.209-128.139 3.617-40.417 10.852-80.070 23.165-118.748 10.087-31.722 24.278-61.357 46.261-86.748 19.757-22.748 42.574-40.974 71.652-50.783 16.278-5.496 32.348-12.035 48.070-18.991 18.017-8 28.661-22.052 30.261-42.017 0.696-8.278 0.348-16.696 0.417-25.043 0.070-30.748 0.070-61.426 0.070-93.078zM611.826 224.696c-10.713 0.070-20.87 2.574-30.678 6.678-66.157 27.965-127.93 63.443-184 108.591-61.078 49.183-111.722 107.409-153.183 173.983-22.609 36.313-39.861 74.991-54.817 114.783-2.852 7.583-6.748 14.957-8.209 22.817-6.957 37.078 6.887 65.948 36.661 87.791 12.939 9.53 27.757 15.304 43.409 18.574 15.374 3.2 28.313-2.087 39.374-12.522 22.47-21.148 41.809-44.939 57.809-71.374 6.539-10.783 12.522-21.913 18.157-33.183 8.904-17.809 5.774-33.322-9.113-46.609-7.722-6.817-16-13.009-23.513-20.104-11.965-11.2-17.739-24.974-13.843-41.391 2.017-8.348 4.939-16.696 8.626-24.487 21.565-46.191 54.4-82.504 98.365-108.452 13.217-7.791 27.2-14.4 41.183-20.8 20.383-9.322 38.47-2.017 51.27 16.209 5.704 8.139 11.548 16 19.826 21.635 15.235 10.365 31.443 10.296 48.139 4.313 11.27-4.035 21.148-10.435 30.609-17.53 21.704-16.209 43.478-32.348 65.183-48.626 2.852-2.157 5.357-4.8 7.791-7.443 14.052-15.096 15.096-32 7.096-50.226-12.8-29.078-33.878-49.878-62.261-63.652-10.713-5.217-21.774-9.113-33.878-8.974zM495.513 803.687c67.339-0.417 128.696-26.643 177.6-80.487 33.183-36.522 52.8-79.583 59.478-128.557 3.896-28.452 2.504-56.626-3.617-84.661-3.617-16.557-20.591-23.443-34.852-14.191-7.791 5.078-10.922 13.496-8.696 23.791 4.313 19.757 5.704 39.652 3.965 59.757-3.339 38.887-16.835 73.878-41.043 104.487-30.887 39.026-71.026 63.096-120 72.070-25.6 4.73-51.2 4.104-76.661-1.53-18.087-4.035-32.139 9.461-28.104 27.2 1.948 8.487 7.583 13.635 15.93 15.652 16.765 4.104 33.67 5.843 56 6.47zM493.983 737.391c82.783-0.626 155.409-60.522 171.13-141.635 4.174-21.496 4.452-43.061 0.626-64.626-2.157-12.313-11.965-19.27-24.835-17.67-12.035 1.461-19.965 11.061-19.13 23.165 0.696 9.461 2.157 18.922 2.017 28.383-0.835 61.843-46.817 115.061-107.757 125.287-14.887 2.504-29.704 2.643-44.591 0.070-20.522-3.548-29.496 15.165-25.53 28.87 2.435 8.417 8.278 13.426 16.765 14.678 10.365 1.461 20.87 2.296 31.304 3.478zM601.878 560.557c0-12.591-5.357-20.661-15.93-23.583-15.304-4.174-28.522 5.635-28.73 21.496-0.557 33.461-22.678 59.965-55.165 65.878-4.104 0.765-8.278 0.904-12.452 1.043-13.078 0.487-21.843 9.6-21.704 22.609 0.209 13.078 9.183 21.913 22.33 21.913 56.070 0 103.443-41.67 110.678-97.6 0.487-3.896 0.626-7.861 0.974-11.757z" />
<glyph unicode="&#xe917;" glyph-name="whatsapp" d="M492 958c20 0 40 0 60 0 2.6-0.6 5.2-1.4 7.8-1.6 87.6-6.2 168-33.4 240.6-82.4 118.4-80.4 191.4-191 217.6-332 3.6-19.2 5.4-38.8 8-58 0-20 0-40 0-60-1.6-13.2-3.2-26.4-5-39.4-14.4-100-54.6-188.2-122-263.4-85.8-96-193.2-152.2-321.4-166.8-96-10.8-187.8 5.4-275 47.2-5 2.4-12.2 3-17.8 1.6-65.8-16.8-131.4-34.2-197-51.6-20.8-5.6-41.4-11.8-62-17.6-8 0-16 0-24 0 0 7.4 0 14.6 0 22 1.2 3 2.8 6 3.8 9.2 25.2 75.8 50.4 151.4 76 227 3 9 2.2 16-2.2 24.2-34.8 63.4-54.4 131.6-59 203.6-7.2 113 19.2 217.8 82.6 311.8 80 118.8 191 191.8 332 218.2 18.8 3.6 38 5.4 57 8zM690 139c14.4 0 38.2 5.2 60.8 16.4 37.4 18.4 65.4 48 92 78.6 17 19.6 16.8 49.4 2 71-30 44.2-73.4 72.6-119 98.2-2.8 1.6-6.2 2.2-9.4 3-21.4 5-39.4 0.6-53.2-17.6-6-8-12.8-15.4-19.6-22.8-28-31.2-52.6-32-82.4-2.4-32.8 32.6-65.6 65.4-98.2 98.2-13.2 13.2-26.8 26-39.2 40-19.4 21.4-18.4 46.8 2.4 66.6 10 9.6 20.6 18.8 31.6 27.6 12.2 9.6 19.2 22 17.8 37-1 11.4-3.4 23.6-9 33.2-21.2 37.2-46 71.8-78.6 100.2-33.6 29-69 27.6-100.2-3.8-12.2-12.2-24.6-24.4-36-37.4-45.4-52-56.4-110.8-32.8-175.8 16-44.4 43.2-82 75.6-115.2 63.4-64.8 127.2-129.2 192-192.6 21.6-21.2 45.2-40.6 69.8-58.2 36.6-26 77-43.4 133.6-44.2z" />
</font>
</defs>
</svg>
