<?xml version="1.0" encoding="utf-8"?>
<!-- Generator: Adobe Illustrator 17.1.0, SVG Export Plug-In . SVG Version: 6.00 Build 0)  -->
<!DOCTYPE svg PUBLIC "-//W3C//DTD SVG 1.1//EN" "http://www.w3.org/Graphics/SVG/1.1/DTD/svg11.dtd">
<svg version="1.1" id="Слой_1" xmlns="http://www.w3.org/2000/svg" xmlns:xlink="http://www.w3.org/1999/xlink" x="0px" y="0px"
	 viewBox="0 0 95.9 95.9" enable-background="new 0 0 95.9 95.9" xml:space="preserve">
<g>
	<defs>
		<rect id="SVGID_1_" width="95.9" height="95.9"/>
	</defs>
	<clipPath id="SVGID_2_">
		<use xlink:href="#SVGID_1_"  overflow="visible"/>
	</clipPath>
	<path clip-path="url(#SVGID_2_)" d="M77.1,95.9c-4,0-8.8-1-14.1-3c-11.6-4.4-24.3-13-35.6-24.4C16,57.2,7.4,44.5,3,32.9
		C-1,22.4-1,13.7,3,9.7c0.6-0.6,1.2-1.2,1.8-1.8C8.3,4.1,12.4-0.2,17.9,0c3.7,0.2,7.4,2.5,11.1,7.1c11,13.6,6,18.5,0.3,24.1l-1,1
		c-0.9,0.9-2.7,5.3,13.7,21.7c5.4,5.4,9.9,9.3,13.6,11.7c2.3,1.5,6.4,3.8,8.1,2.1l1-1C70.3,60.9,75.2,56,88.8,67
		c4.6,3.7,6.9,7.3,7.1,11.1c0.2,5.4-4.1,9.5-7.9,13.1c-0.6,0.6-1.2,1.2-1.8,1.7C84.2,94.9,81,95.9,77.1,95.9 M17.5,3.2
		c-3.9,0-7.3,3.7-10.4,6.9c-0.6,0.7-1.2,1.3-1.8,1.9c-3,3-2.7,10.7,0.8,19.8C10.2,43,18.6,55.2,29.7,66.2c11,11,23.2,19.4,34.4,23.6
		c9.1,3.4,16.8,3.7,19.8,0.8c0.6-0.6,1.2-1.2,1.9-1.8c3.3-3.1,7.1-6.7,6.9-10.7c-0.1-2.7-2.1-5.6-5.9-8.7
		c-11.3-9.1-14.5-5.9-19.8-0.6l-1,1c-2.5,2.5-6.6,2-12.1-1.6c-3.8-2.5-8.6-6.6-14.1-12.1c-13.6-13.6-18-22-13.7-26.3l1-1
		c5.4-5.3,8.6-8.4-0.6-19.8c-3.1-3.8-6-5.8-8.7-5.9C17.6,3.2,17.6,3.2,17.5,3.2"/>
</g>
</svg>
