<?xml version="1.0" encoding="utf-8"?>
<!-- Generator: Adobe Illustrator 17.1.0, SVG Export Plug-In . SVG Version: 6.00 Build 0)  -->
<!DOCTYPE svg PUBLIC "-//W3C//DTD SVG 1.1//EN" "http://www.w3.org/Graphics/SVG/1.1/DTD/svg11.dtd">
<svg version="1.1" id="Слой_1" xmlns="http://www.w3.org/2000/svg" xmlns:xlink="http://www.w3.org/1999/xlink" x="0px" y="0px"
	 viewBox="0 0 512 512" enable-background="new 0 0 512 512" xml:space="preserve">
<g>
	<g>
		<path d="M513.5,438.7c-2.5,14.2-11.8,24-21.5,33.8c-21.1,21.4-46.4,34.3-75.9,38.6c-14.9,2.2-29.9,0.6-44.8-1.9
			c-48.1-8.1-91.5-27.7-132.4-53.5C182.9,420.3,136,374.5,92.7,324.9c-24.4-27.9-46.5-57.5-63.6-90.5
			C10.5,198.6,0.2,160.8,1.6,120.2c1-29.5,8.3-56.9,26.2-80.9C37,27,47.3,15.5,60.3,7.4C77-3,95.8-0.5,109.8,13.3
			c26.3,25.8,52.4,51.8,78.1,78.1c17,17.4,16,41.7-1.8,59.8c-11.4,11.7-23.1,23.1-34.7,34.6c-1.3,1.3-3.1,2-3.9,2.5
			c39.3,80.6,98.2,139.6,178,178.3c11.9-11.9,24-24.3,36.3-36.4c3.3-3.3,6.8-6.5,10.7-8.9c17.2-10.5,36.5-8.6,50.9,5.5
			c26.1,25.7,51.9,51.8,77.8,77.7c6.5,6.5,9.8,14.5,12.2,23.1C513.5,431.3,513.5,435,513.5,438.7z"/>
	</g>
</g>
</svg>
