<?xml version="1.0" encoding="utf-8"?>
<!-- Generator: Adobe Illustrator 17.1.0, SVG Export Plug-In . SVG Version: 6.00 Build 0)  -->
<!DOCTYPE svg PUBLIC "-//W3C//DTD SVG 1.1//EN" "http://www.w3.org/Graphics/SVG/1.1/DTD/svg11.dtd">
<svg version="1.1" id="Слой_1" xmlns="http://www.w3.org/2000/svg" xmlns:xlink="http://www.w3.org/1999/xlink" x="0px" y="0px"
	 viewBox="0 0 512.9 409.6" enable-background="new 0 0 512.9 409.6" xml:space="preserve">
<g>
	<defs>
		<rect id="SVGID_1_" width="512.9" height="409.6"/>
	</defs>
	<clipPath id="SVGID_2_">
		<use xlink:href="#SVGID_1_"  overflow="visible"/>
	</clipPath>
	<path clip-path="url(#SVGID_2_)" d="M505.2,142.5l-74.2-81.9c-6-6-13.7-9.4-21.3-9.4h-85.3V33.3c0-18.8-14.5-33.3-32.4-33.3H33.3
		C14.5,0,0,14.5,0,33.3v205.7V256v72.5c0,16.2,13.7,29.9,29.9,29.9h13.4c4.1,29.2,28.8,51.2,59.1,51.2c30.4,0,55.1-22,59.1-51.2
		h145.7h17.1h26.2c4.1,29.2,28.8,51.2,59.1,51.2c30.4,0,55.1-22,59.1-51.2H512h0.9V162.1C512.9,154.5,510.3,147.6,505.2,142.5
		 M491.5,153.6c2.6,1.7,3.4,5.1,3.4,7.7v26.5h-128v-85.3h77.7L491.5,153.6z M17.1,179.2h119.5c5.1,0,8.5-3.4,8.5-8.5
		s-3.4-8.5-8.5-8.5H17.1v-25.6h85.3c5.1,0,8.5-3.4,8.5-8.5s-3.4-8.5-8.5-8.5H17.1V33.3c0-9.4,6.8-16.2,16.2-16.2H291
		c9.4,0,16.2,7.7,16.2,16.2v17.9v187.7H17.1V179.2z M102.4,392.5c-23.9,0-42.7-18.8-42.7-42.7c0-23.9,18.8-42.7,42.7-42.7
		c23.9,0,42.7,18.8,42.7,42.7C145.1,373.8,126.3,392.5,102.4,392.5 M307.2,341.3H161.5c-3.8-27.3-25.8-48.4-53.5-50.9
		c-0.2,0-0.4,0-0.6,0c-0.7-0.1-1.4-0.1-2.1-0.1c-1,0-1.9-0.1-2.9-0.1c-1,0-1.9,0-2.9,0.1c-0.7,0-1.4,0.1-2.1,0.1c-0.2,0-0.4,0-0.6,0
		C69,292.9,47.1,314,43.3,341.3H29.9c-6.8,0-12.8-6-12.8-12.8V256h290.1V341.3z M409.6,392.5c-23.9,0-42.7-18.8-42.7-42.7
		c0-23.9,18.8-42.7,42.7-42.7c23.9,0,42.7,18.8,42.7,42.7C452.3,373.8,433.5,392.5,409.6,392.5 M468.7,341.3
		c-3.8-27.3-25.8-48.4-53.5-50.9c-0.2,0-0.4,0-0.6,0c-0.7-0.1-1.4-0.1-2.1-0.1c-1,0-1.9-0.1-2.9-0.1s-1.9,0-2.9,0.1
		c-0.7,0-1.4,0.1-2.1,0.1c-0.2,0-0.4,0-0.6,0c-27.8,2.5-49.7,23.6-53.5,50.9h-26.2V256v-17.1V68.3h85.3c2.6,0,6,1.7,8.5,3.4
		l12.2,13.7h-66c-7.7,0-14.5,6.8-14.5,14.5v90.5c0,7.7,6.8,14.5,14.5,14.5h130.6v42.7h-42.7c-5.1,0-8.5,3.4-8.5,8.5
		c0,5.1,3.4,8.5,8.5,8.5h42.7v76.8L468.7,341.3L468.7,341.3z"/>
	<path clip-path="url(#SVGID_2_)" d="M102.4,332.8c-9.4,0-17.1,7.7-17.1,17.1s7.7,17.1,17.1,17.1s17.1-7.7,17.1-17.1
		S111.8,332.8,102.4,332.8"/>
	<path clip-path="url(#SVGID_2_)" d="M409.6,332.8c-9.4,0-17.1,7.7-17.1,17.1s7.7,17.1,17.1,17.1c9.4,0,17.1-7.7,17.1-17.1
		S419,332.8,409.6,332.8"/>
</g>
</svg>
