<?xml version="1.0" encoding="utf-8"?>
<!-- Generator: Adobe Illustrator 17.1.0, SVG Export Plug-In . SVG Version: 6.00 Build 0)  -->
<!DOCTYPE svg PUBLIC "-//W3C//DTD SVG 1.1//EN" "http://www.w3.org/Graphics/SVG/1.1/DTD/svg11.dtd">
<svg version="1.1" id="Слой_1" xmlns="http://www.w3.org/2000/svg" xmlns:xlink="http://www.w3.org/1999/xlink" x="0px" y="0px"
	 viewBox="0 0 494.3 299.2" enable-background="new 0 0 494.3 299.2" xml:space="preserve">
<g>
	<defs>
		<rect id="SVGID_1_" width="494.3" height="299.2"/>
	</defs>
	<clipPath id="SVGID_2_">
		<use xlink:href="#SVGID_1_"  overflow="visible"/>
	</clipPath>
	<path clip-path="url(#SVGID_2_)" d="M399.7,299.2c-28.4,0-51.6-23.1-51.6-51.6c0-28.4,23.1-51.5,51.6-51.5
		c28.4,0,51.5,23.1,51.5,51.5C451.2,276.1,428.1,299.2,399.7,299.2 M399.7,208c-21.9,0-39.7,17.8-39.7,39.7
		c0,21.9,17.8,39.7,39.7,39.7c21.9,0,39.7-17.8,39.7-39.7C439.4,225.8,421.6,208,399.7,208"/>
	<rect x="465.6" y="185.9" clip-path="url(#SVGID_2_)" width="22.8" height="11.8"/>
	<path clip-path="url(#SVGID_2_)" d="M83.6,299.2c-28.4,0-51.6-23.1-51.6-51.6c0-28.4,23.1-51.5,51.6-51.5
		c28.4,0,51.5,23.1,51.5,51.5C135.2,276.1,112,299.2,83.6,299.2 M83.6,208c-21.9,0-39.7,17.8-39.7,39.7c0,21.9,17.8,39.7,39.7,39.7
		c21.9,0,39.7-17.8,39.7-39.7C123.3,225.8,105.5,208,83.6,208"/>
	<path clip-path="url(#SVGID_2_)" d="M197.3,299.2c-28.4,0-51.5-23.1-51.5-51.6c0-28.4,23.1-51.5,51.5-51.5
		c28.4,0,51.6,23.1,51.6,51.5C248.9,276.1,225.7,299.2,197.3,299.2 M197.3,208c-21.9,0-39.7,17.8-39.7,39.7
		c0,21.9,17.8,39.7,39.7,39.7c21.9,0,39.7-17.8,39.7-39.7C237,225.8,219.2,208,197.3,208"/>
	<path clip-path="url(#SVGID_2_)" d="M197.3,269.4c-12,0-21.8-9.8-21.8-21.8c0-12,9.8-21.8,21.8-21.8c12,0,21.8,9.8,21.8,21.8
		C219.1,259.7,209.3,269.4,197.3,269.4 M197.3,237.7c-5.5,0-10,4.5-10,9.9c0,5.5,4.5,9.9,10,9.9c5.5,0,10-4.5,10-9.9
		C207.3,242.2,202.8,237.7,197.3,237.7"/>
	<path clip-path="url(#SVGID_2_)" d="M398.9,269.4c-12,0-21.8-9.8-21.8-21.8c0-12,9.8-21.8,21.8-21.8c12,0,21.8,9.8,21.8,21.8
		C420.7,259.7,411,269.4,398.9,269.4 M398.9,237.7c-5.5,0-10,4.5-10,9.9c0,5.5,4.5,9.9,10,9.9c5.5,0,10-4.5,10-9.9
		C408.9,242.2,404.4,237.7,398.9,237.7"/>
	<path clip-path="url(#SVGID_2_)" d="M83.6,269.4c-12,0-21.8-9.8-21.8-21.8c0-12,9.8-21.8,21.8-21.8c12,0,21.8,9.8,21.8,21.8
		C105.4,259.7,95.6,269.4,83.6,269.4 M83.6,237.7c-5.5,0-10,4.5-10,9.9c0,5.5,4.5,9.9,10,9.9c5.5,0,10-4.5,10-9.9
		C93.6,242.2,89.1,237.7,83.6,237.7"/>
	<path clip-path="url(#SVGID_2_)" d="M451.7,153.2H346.2c-3.3,0-5.9-2.7-5.9-5.9V65.1c0-3.3,2.7-5.9,5.9-5.9H417
		c2.1,0,4,1.1,5.1,2.9c18.7,31.1,34.6,81.4,35.3,83.5c0.6,1.8,0.2,3.8-0.9,5.3C455.4,152.3,453.6,153.2,451.7,153.2 M352.1,141.3
		h91.4c-5-14.7-16.8-47.5-29.9-70.3h-61.5V141.3z"/>
	<path clip-path="url(#SVGID_2_)" d="M317.6,186.1H5.9c-3.3,0-5.9-2.7-5.9-5.9V5.9C0,2.7,2.7,0,5.9,0h311.6c3.3,0,5.9,2.7,5.9,5.9
		v174.3C323.5,183.5,320.8,186.1,317.6,186.1 M11.8,174.3h299.8V11.8H11.8V174.3z"/>
	<path clip-path="url(#SVGID_2_)" d="M317.6,253.6h-74.6c-3.3,0-5.9-2.7-5.9-5.9c0-21.9-17.8-39.7-39.7-39.7
		c-21.9,0-39.7,17.8-39.7,39.7c0,3.3-2.7,5.9-5.9,5.9h-22.5c-3.3,0-5.9-2.7-5.9-5.9c0-21.9-17.8-39.7-39.7-39.7
		c-21.9,0-39.7,17.8-39.7,39.7c0,3.3-2.7,5.9-5.9,5.9H5.9c-3.3,0-5.9-2.7-5.9-5.9v-67.5c0-3.3,2.7-5.9,5.9-5.9h311.6
		c3.3,0,5.9,2.7,5.9,5.9v67.5C323.5,250.9,320.8,253.6,317.6,253.6 M248.5,241.7h63.1v-55.6H11.8v55.6h20.6
		c2.9-25.6,24.8-45.6,51.2-45.6c26.4,0,48.3,20,51.2,45.6h11.3c2.9-25.6,24.8-45.6,51.2-45.6C223.7,196.1,245.6,216.1,248.5,241.7"
		/>
	<path clip-path="url(#SVGID_2_)" d="M488.4,253.6h-43.1c-3.3,0-5.9-2.7-5.9-5.9c0-21.9-17.8-39.7-39.7-39.7
		c-21.9,0-39.7,17.8-39.7,39.7c0,3.3-2.7,5.9-5.9,5.9h-36.5c-3.3,0-5.9-2.7-5.9-5.9V40.2c0-3.3,2.7-5.9,5.9-5.9h82.1
		c1.1,0,2.2,0.3,3.1,0.9c5.8,3.6,10.7,12,15.8,20.9c1.2,2,2.3,4.1,3.5,6c1.1,1.8,1.1,4.1,0.1,6c-1,1.9-3,3-5.2,3h-64.9v70.3h99.6
		c1.3,0,2.5,0.4,3.5,1.1l36.7,26.9c1.5,1.1,2.4,2.9,2.4,4.8v73.4C494.3,250.9,491.7,253.6,488.4,253.6 M450.9,241.7h31.6v-64.5
		l-32.7-24H346.2c-3.3,0-5.9-2.7-5.9-5.9V65.1c0-3.3,2.7-5.9,5.9-5.9h60.5c-3-5.2-6.3-10.6-9-13.1h-74.2v195.6h25
		c2.9-25.6,24.8-45.6,51.2-45.6C426.1,196.1,447.9,216.1,450.9,241.7"/>
</g>
</svg>
