<?xml version="1.0" encoding="utf-8"?>
<!-- Generator: Adobe Illustrator 17.1.0, SVG Export Plug-In . SVG Version: 6.00 Build 0)  -->
<!DOCTYPE svg PUBLIC "-//W3C//DTD SVG 1.1//EN" "http://www.w3.org/Graphics/SVG/1.1/DTD/svg11.dtd">
<svg version="1.1" id="Слой_1" xmlns="http://www.w3.org/2000/svg" xmlns:xlink="http://www.w3.org/1999/xlink" x="0px" y="0px"
	 viewBox="0 0 210.3 194.2" enable-background="new 0 0 210.3 194.2" xml:space="preserve">
<g>
	<defs>
		<rect id="SVGID_1_" width="210.3" height="194.2"/>
	</defs>
	<clipPath id="SVGID_2_">
		<use xlink:href="#SVGID_1_"  overflow="visible"/>
	</clipPath>
	<path clip-path="url(#SVGID_2_)" d="M38.4,194.2c-6.5,0-12.6-4.2-14.6-10.8L0.7,107.5c-2.5-8.1,2.1-16.6,10.1-19.1l35.4-10.8V14.3
		C46.2,6.4,52.6,0,60.5,0H196c7.9,0,14.3,6.4,14.3,14.3v81.2c0,7.9-6.4,14.3-14.3,14.3h-23l7.8,25.6c1.2,3.9,0.8,8-1.1,11.6
		c-1.9,3.6-5.1,6.2-9,7.4l-127.7,39C41.4,194,39.9,194.2,38.4,194.2 M15.4,135.3l14.1,46.3c1.5,4.9,6.7,7.7,11.6,6.2l127.7-39
		c4.9-1.5,7.6-6.7,6.2-11.6l-8.2-26.8h-18.5l2.9,9.4c0.2,0.8,0.2,1.6-0.2,2.3c-0.4,0.7-1,1.2-1.8,1.5l-107,32.8
		c-1.6,0.5-3.3-0.4-3.7-2l-3.4-11.2c-0.2-0.8-0.2-1.6,0.2-2.3c0.4-0.7,1-1.2,1.8-1.5l94.8-29H96.6L15.4,135.3z M41.7,144.3l1.7,5.4
		l101.3-31l-1.7-5.4L41.7,144.3z M7.8,110.4l5.9,19.2l62.4-19.2H61.5c-4.2,0-8.1-1.7-10.8-4.5c-2-1.9-3.5-4.5-4.1-7.3L7.8,110.4z
		 M46.2,83.9L12.6,94.2c-4.5,1.4-7.2,5.9-6.4,10.5l40.1-12.2V83.9 M54.8,101.6c1.5,1.4,3.5,2.3,5.7,2.3H196c4.6,0,8.3-3.7,8.3-8.3
		V14.3c0-4.6-3.7-8.3-8.3-8.3H60.5c-4.6,0-8.3,3.7-8.3,8.3v80.3c0,0,0,0.1,0,0.1v0.4C52.2,97.7,53.2,100,54.8,101.6 M192.6,79.3h-21
		c-1.7,0-3-1.3-3-3c0-1.7,1.3-3,3-3h21c1.7,0,3,1.3,3,3C195.6,78,194.2,79.3,192.6,79.3 M156.9,79.3h-21c-1.7,0-3-1.3-3-3
		c0-1.7,1.3-3,3-3h21c1.7,0,3,1.3,3,3C159.9,78,158.6,79.3,156.9,79.3 M121.3,79.3h-21c-1.7,0-3-1.3-3-3c0-1.7,1.3-3,3-3h21
		c1.7,0,3,1.3,3,3C124.3,78,122.9,79.3,121.3,79.3 M85.6,79.3h-21c-1.7,0-3-1.3-3-3c0-1.7,1.3-3,3-3h21c1.7,0,3,1.3,3,3
		C88.6,78,87.2,79.3,85.6,79.3 M80.6,57.9h-11c-4.4,0-8-3.6-8-8v-9c0-4.4,3.6-8,8-8h11c4.4,0,8,3.6,8,8v9
		C88.6,54.4,85,57.9,80.6,57.9 M69.6,38.9c-1.1,0-2,0.9-2,2v9c0,1.1,0.9,2,2,2h11c1.1,0,2-0.9,2-2v-9c0-1.1-0.9-2-2-2H69.6z"/>
</g>
</svg>
