<?xml version="1.0" encoding="utf-8"?>
<!-- Generator: Adobe Illustrator 17.1.0, SVG Export Plug-In . SVG Version: 6.00 Build 0)  -->
<!DOCTYPE svg PUBLIC "-//W3C//DTD SVG 1.1//EN" "http://www.w3.org/Graphics/SVG/1.1/DTD/svg11.dtd">
<svg version="1.1" id="Шар_1" xmlns="http://www.w3.org/2000/svg" xmlns:xlink="http://www.w3.org/1999/xlink" x="0px" y="0px"
	 viewBox="0 167 640 620" enable-background="new 0 167 640 620" xml:space="preserve">
<path fill="none" stroke="#000000" stroke-width="7.5" stroke-miterlimit="12" d="M559.9,658.3c36.9-50.3,58.8-112,58.8-179.3
	c0-167.3-135.4-302.6-302.6-302.6c-67.3,0-129,22-179.3,58.8"/>
<path fill="none" stroke="#000000" stroke-width="7.5" stroke-miterlimit="12" d="M85.8,284c-44.7,52.4-71.6,120.5-71.6,194.9
	c0,167.3,135.4,302.6,302.6,302.6c74.4,0,142.5-26.9,194.9-71.6"/>
<g>
	<path fill="#010302" stroke="#000000" stroke-width="img3.jpg" stroke-miterlimit="10" d="M86.5,281.2l-70.2,14.2
		c-1.4,0-2.8,2.1-2.1,3.5c0,1.4,2.1,2.8,3.5,2.1L85,287.6l13.5,67.3c0,1.4,2.1,2.8,3.5,2.1c0.7,0,1.4-0.7,2.1-1.4
		c0.7-0.7,0.7-1.4,0.7-2.1l-14.2-70.2C90,281.9,88.6,281.2,86.5,281.2z"/>
</g>
<g>
	<path fill="#010302" stroke="#000000" stroke-width="3" stroke-miterlimit="10" d="M559.9,663.9l69.5-17c1.4-0.7,2.8-2.1,2.1-3.5
		c-0.7-1.4-2.1-2.8-3.5-2.1l-66.6,15.6L545,590.2c-0.7-1.4-2.1-2.8-3.5-2.1c-0.7,0-1.4,0.7-2.1,1.4c-0.7,0.7-0.7,1.4,0,2.1l17,69.5
		C556.4,663.2,557.8,663.9,559.9,663.9z"/>
</g>
</svg>
