<?xml version="1.0" encoding="utf-8"?>
<!-- Generator: Adobe Illustrator 17.1.0, SVG Export Plug-In . SVG Version: 6.00 Build 0)  -->
<!DOCTYPE svg PUBLIC "-//W3C//DTD SVG 1.1//EN" "http://www.w3.org/Graphics/SVG/1.1/DTD/svg11.dtd">
<svg version="1.1" id="Слой_1" xmlns="http://www.w3.org/2000/svg" xmlns:xlink="http://www.w3.org/1999/xlink" x="0px" y="0px"
	 viewBox="0 0 89 89" enable-background="new 0 0 89 89" xml:space="preserve">
<g>
	<defs>
		<rect id="SVGID_1_" y="0" width="89" height="89"/>
	</defs>
	<clipPath id="SVGID_2_">
		<use xlink:href="#SVGID_1_"  overflow="visible"/>
	</clipPath>
	<path clip-path="url(#SVGID_2_)" d="M44.5,89C20,89,0,69,0,44.5C0,20,20,0,44.5,0C69,0,89,20,89,44.5C89,69,69,89,44.5,89
		 M44.5,2.7c-23,0-41.8,18.8-41.8,41.8c0,23,18.7,41.8,41.8,41.8c23,0,41.8-18.7,41.8-41.8C86.3,21.5,67.5,2.7,44.5,2.7"/>
	<path clip-path="url(#SVGID_2_)" d="M31.6,61.5c-0.3,0-0.6-0.1-0.9-0.3c-0.6-0.5-0.7-1.3-0.2-1.9L43.1,44V18.5
		c0-0.7,0.6-1.4,1.4-1.4c0.7,0,1.4,0.6,1.4,1.4v26c0,0.3-0.1,0.6-0.3,0.9L32.6,61C32.3,61.3,31.9,61.5,31.6,61.5"/>
</g>
</svg>
