<?xml version="1.0" encoding="utf-8"?>
<!-- Generator: Adobe Illustrator 17.1.0, SVG Export Plug-In . SVG Version: 6.00 Build 0)  -->
<!DOCTYPE svg PUBLIC "-//W3C//DTD SVG 1.1//EN" "http://www.w3.org/Graphics/SVG/1.1/DTD/svg11.dtd">
<svg version="1.1" id="Слой_1" xmlns="http://www.w3.org/2000/svg" xmlns:xlink="http://www.w3.org/1999/xlink" x="0px" y="0px"
	 viewBox="0 0 512 512" enable-background="new 0 0 512 512" xml:space="preserve">
<g>
	<g>
		<path d="M462,513c-0.3,0-0.7,0-1,0c-1-1.3-1.9-2.7-3-3.8C392.3,443.5,326.5,377.7,260.8,312c-1.1-1.1-2.4-2.2-3.8-3.5
			c-1.4,1.3-2.6,2.4-3.8,3.5C187.5,377.7,121.7,443.5,56,509.2c-1.1,1.1-2,2.5-3,3.8c-0.3,0-0.7,0-1,0c-17-17-34-34-51-51
			c0-0.3,0-0.7,0-1c1.3-1,2.7-1.9,3.8-3C70.5,392.3,136.3,326.5,202,260.8c1.1-1.1,2.2-2.4,3.5-3.8c-1.3-1.4-2.4-2.6-3.5-3.8
			C136.3,187.5,70.5,121.7,4.8,56c-1.1-1.1-2.5-2-3.8-3c0-0.3,0-0.7,0-1C18,35,35,18,52,1c0.3,0,0.7,0,1,0c1,1.3,1.9,2.7,3,3.8
			C121.7,70.5,187.5,136.3,253.2,202c1.1,1.1,2.4,2.2,3.8,3.5c1.4-1.3,2.6-2.4,3.8-3.5C326.5,136.3,392.3,70.5,458,4.8
			c1.1-1.1,2-2.5,3-3.8c0.3,0,0.7,0,1,0c17,17,34,34,51,51c0,0.3,0,0.7,0,1c-1.3,1-2.7,1.9-3.8,3C443.5,121.7,377.7,187.5,312,253.2
			c-1.1,1.1-2.2,2.4-3.5,3.8c1.3,1.4,2.4,2.6,3.5,3.8c65.7,65.7,131.5,131.5,197.2,197.2c1.1,1.1,2.5,2,3.8,3c0,0.3,0,0.7,0,1
			C496,479,479,496,462,513z"/>
	</g>
</g>
</svg>
