<?xml version="1.0" encoding="utf-8"?>
<!-- Generator: Adobe Illustrator 17.1.0, SVG Export Plug-In . SVG Version: 6.00 Build 0)  -->
<!DOCTYPE svg PUBLIC "-//W3C//DTD SVG 1.1//EN" "http://www.w3.org/Graphics/SVG/1.1/DTD/svg11.dtd">
<svg version="1.1" id="Слой_1" xmlns="http://www.w3.org/2000/svg" xmlns:xlink="http://www.w3.org/1999/xlink" x="0px" y="0px"
	 viewBox="0 0 84.6 114.9" enable-background="new 0 0 84.6 114.9" xml:space="preserve">
<g>
	<defs>
		<rect id="SVGID_1_" width="84.6" height="114.9"/>
	</defs>
	<clipPath id="SVGID_2_">
		<use xlink:href="#SVGID_1_"  overflow="visible"/>
	</clipPath>
	<path clip-path="url(#SVGID_2_)" d="M42.3,62c-10.8,0-19.6-8.8-19.6-19.7c0-10.8,8.8-19.7,19.6-19.7S62,31.5,62,42.3
		C62,53.1,53.1,62,42.3,62 M42.3,26.1c-8.9,0-16.2,7.3-16.2,16.2s7.3,16.2,16.2,16.2s16.2-7.3,16.2-16.2S51.2,26.1,42.3,26.1"/>
	<path clip-path="url(#SVGID_2_)" d="M42.3,114.9c-0.5,0-1-0.2-1.3-0.6c-1.7-2-41-49.2-41-72C0,19,19,0,42.3,0s42.3,19,42.3,42.3
		c0,22.8-39.3,70-41,72C43.3,114.7,42.8,114.9,42.3,114.9 M42.3,3.5C20.9,3.5,3.5,20.9,3.5,42.3c0,19.3,31.9,59.6,38.8,68.1
		c7-8.6,38.8-48.8,38.8-68.1C81.1,20.9,63.7,3.5,42.3,3.5"/>
</g>
</svg>
