<?xml version="1.0" encoding="utf-8"?>
<!-- Generator: Adobe Illustrator 17.1.0, SVG Export Plug-In . SVG Version: 6.00 Build 0)  -->
<!DOCTYPE svg PUBLIC "-//W3C//DTD SVG 1.1//EN" "http://www.w3.org/Graphics/SVG/1.1/DTD/svg11.dtd">
<svg version="1.1" id="Слой_1" xmlns="http://www.w3.org/2000/svg" xmlns:xlink="http://www.w3.org/1999/xlink" x="0px" y="0px"
	 viewBox="0 0 64 63.9" enable-background="new 0 0 64 63.9" xml:space="preserve">
<g>
	<defs>
		<rect id="SVGID_1_" y="0" width="64" height="63.9"/>
	</defs>
	<clipPath id="SVGID_2_">
		<use xlink:href="#SVGID_1_"  overflow="visible"/>
	</clipPath>
	<path clip-path="url(#SVGID_2_)" d="M60,11.9h-3.7c0,0,0.1,0,0.1,0C62.2,9.2,58.8,0,53.4,0c-0.7,0-1.5,0.2-2.3,0.5
		c-5.3,2.5-9.9,8-12.1,11c-0.6-2.4-3.4-4.1-6.9-4.1c-3.6,0-6.5,1.8-6.9,4.3C23,8.8,18.3,3.1,12.9,0.5C12.1,0.2,11.3,0,10.6,0
		c-5.4,0-8.8,9.2-3,11.9c0,0,0.1,0,0.1,0H4c-2.2,0-4,1.8-4,4v44c0,2.2,1.8,4,4,4h56c2.2,0,4-1.8,4-4v-44C64,13.7,62.2,11.9,60,11.9
		 M62,15.9v21H33v-23h27C61.1,13.9,62,14.8,62,15.9 M52,2.3c0.5-0.2,1-0.3,1.4-0.3c1.9,0,3.5,2,3.9,3.9c0.2,0.9,0.4,3.1-1.7,4.1
		c-2.5,1.2-6.5,1.8-11.6,1.8c-1,0-1.8,0-2.6-0.1C43.6,8.8,47.5,4.4,52,2.3 M32.1,9.4c2.4,0,4.5,1.1,4.9,2.5h-9.8
		C27.6,10.5,29.7,9.4,32.1,9.4 M6.7,5.9C7.1,4,8.7,2,10.6,2c0.5,0,0.9,0.1,1.4,0.3c4.4,2.1,8.4,6.5,10.7,9.4c-0.8,0-1.7,0.1-2.6,0.1
		c-5.1,0-9.2-0.6-11.6-1.8C6.3,9,6.5,6.8,6.7,5.9 M4,13.9h27v23H2v-21C2,14.8,2.9,13.9,4,13.9 M2,59.9v-21h29v23H4
		C2.9,61.9,2,61,2,59.9 M60,61.9H33v-23h29v21C62,61,61.1,61.9,60,61.9"/>
</g>
</svg>
