<?xml version="1.0" encoding="utf-8"?>
<!-- Generator: Adobe Illustrator 17.1.0, SVG Export Plug-In . SVG Version: 6.00 Build 0)  -->
<!DOCTYPE svg PUBLIC "-//W3C//DTD SVG 1.1//EN" "http://www.w3.org/Graphics/SVG/1.1/DTD/svg11.dtd">
<svg version="1.1" id="Слой_1" xmlns="http://www.w3.org/2000/svg" xmlns:xlink="http://www.w3.org/1999/xlink" x="0px" y="0px"
	 viewBox="0 0 473.7 416.7" enable-background="new 0 0 473.7 416.7" xml:space="preserve">
<g>
	<defs>
		<rect id="SVGID_1_" width="473.7" height="416.7"/>
	</defs>
	<clipPath id="SVGID_2_">
		<use xlink:href="#SVGID_1_"  overflow="visible"/>
	</clipPath>
	<path clip-path="url(#SVGID_2_)" d="M434.6,39.5c-24.7-24.7-57.4-38.2-92.3-38.2s-67.7,13.6-92.4,38.3L237,52.5l-13.1-13.1
		C199.2,14.7,166.3,1,131.4,1C96.6,1,63.8,14.6,39.2,39.2C14.5,63.9,0.9,96.7,1,131.6c0,34.9,13.7,67.6,38.4,92.3l187.8,187.8
		c2.6,2.6,6.1,4,9.5,4c3.4,0,6.9-1.3,9.5-3.9l188.2-187.5c24.7-24.7,38.3-57.5,38.3-92.4C472.8,97,459.3,64.2,434.6,39.5
		 M415.4,205.2l-178.7,178L58.4,204.9C38.8,185.3,28,159.3,28,131.6c0-27.7,10.7-53.7,30.3-73.2c19.5-19.5,45.5-30.3,73.1-30.3
		c27.7,0,53.8,10.8,73.4,30.4l22.6,22.6c5.3,5.3,13.8,5.3,19.1,0l22.4-22.4c19.6-19.6,45.7-30.4,73.3-30.4s53.6,10.8,73.2,30.3
		c19.6,19.6,30.3,45.6,30.3,73.3C445.8,159.6,435,185.6,415.4,205.2"/>
	<path clip-path="url(#SVGID_2_)" fill="none" stroke="#000000" stroke-width="2" stroke-miterlimit="10" d="M434.6,39.5
		c-24.7-24.7-57.4-38.2-92.3-38.2s-67.7,13.6-92.4,38.3L237,52.5l-13.1-13.1C199.2,14.7,166.3,1,131.4,1C96.6,1,63.8,14.6,39.2,39.2
		C14.5,63.9,0.9,96.7,1,131.6c0,34.9,13.7,67.6,38.4,92.3l187.8,187.8c2.6,2.6,6.1,4,9.5,4c3.4,0,6.9-1.3,9.5-3.9l188.2-187.5
		c24.7-24.7,38.3-57.5,38.3-92.4C472.8,97,459.3,64.2,434.6,39.5z M415.4,205.2l-178.7,178L58.4,204.9C38.8,185.3,28,159.3,28,131.6
		c0-27.7,10.7-53.7,30.3-73.2c19.5-19.5,45.5-30.3,73.1-30.3c27.7,0,53.8,10.8,73.4,30.4l22.6,22.6c5.3,5.3,13.8,5.3,19.1,0
		l22.4-22.4c19.6-19.6,45.7-30.4,73.3-30.4s53.6,10.8,73.2,30.3c19.6,19.6,30.3,45.6,30.3,73.3C445.8,159.6,435,185.6,415.4,205.2z"
		/>
</g>
</svg>
