<?xml version="1.0" encoding="utf-8"?>
<!-- Generator: Adobe Illustrator 17.1.0, SVG Export Plug-In . SVG Version: 6.00 Build 0)  -->
<!DOCTYPE svg PUBLIC "-//W3C//DTD SVG 1.1//EN" "http://www.w3.org/Graphics/SVG/1.1/DTD/svg11.dtd">
<svg version="1.1" id="Слой_1" xmlns="http://www.w3.org/2000/svg" xmlns:xlink="http://www.w3.org/1999/xlink" x="0px" y="0px"
	 viewBox="0 0 366 352.7" enable-background="new 0 0 366 352.7" xml:space="preserve">
<g>
	<defs>
		<rect id="SVGID_1_" width="366" height="352.7"/>
	</defs>
	<clipPath id="SVGID_2_">
		<use xlink:href="#SVGID_1_"  overflow="visible"/>
	</clipPath>
	<path clip-path="url(#SVGID_2_)" d="M317.5,119.8H234V58.7c0-23.3-6.7-40-19.9-49.7c-21-15.4-50.1-6.5-51.3-6.1
		c-2.5,0.8-4.2,3.1-4.2,5.7v64.9c0,43.9-48.9,70.2-67.6,78.6V151c0-5.5-4.4-9.9-9.9-9.9H9.9c-5.5,0-9.9,4.4-9.9,9.9v186.1
		c0,5.4,4.5,9.9,9.9,9.9H81c5.5,0,9.9-4.4,9.9-9.9v-1c8.9,10.2,22,16.6,36.5,16.6h158.8c33.3,0,54.5-17.4,58.3-47.7l21.4-135.8
		c0-0.3,0.1-0.6,0.1-0.9C366,141.5,344.2,119.8,317.5,119.8 M78.9,335H12V153.1h66.9V335z M332.6,303.2v0.2
		c-3.8,30.8-27.3,37.2-46.4,37.2H127.4c-20.1,0-36.5-16.4-36.5-36.5v-139c6.5-2.6,22.1-9.5,37.8-21.1c27.4-20.1,41.8-44.5,41.8-70.6
		V13.2c7.7-1.5,24.4-3.5,36.5,5.4c9.9,7.3,14.9,20.8,14.9,40v67.1c0,3.3,2.7,6,6,6h89.5c20,0,36.3,16.1,36.5,36.1L332.6,303.2z"/>
</g>
</svg>
