<?xml version="1.0" encoding="utf-8"?>
<!-- Generator: Adobe Illustrator 17.1.0, SVG Export Plug-In . SVG Version: 6.00 Build 0)  -->
<!DOCTYPE svg PUBLIC "-//W3C//DTD SVG 1.1//EN" "http://www.w3.org/Graphics/SVG/1.1/DTD/svg11.dtd">
<svg version="1.1" id="Слой_1" xmlns="http://www.w3.org/2000/svg" xmlns:xlink="http://www.w3.org/1999/xlink" x="0px" y="0px"
	 viewBox="0 0 141.5 100.6" enable-background="new 0 0 141.5 100.6" xml:space="preserve">
<g>
	<defs>
		<rect id="SVGID_1_" width="141.5" height="100.6"/>
	</defs>
	<clipPath id="SVGID_2_">
		<use xlink:href="#SVGID_1_"  overflow="visible"/>
	</clipPath>
	<path clip-path="url(#SVGID_2_)" d="M130.1,100.6H11.4C5.1,100.6,0,95.5,0,89.2V11.4C0,5.1,5.1,0,11.4,0h118.7
		c6.3,0,11.4,5.1,11.4,11.4v77.8C141.5,95.5,136.4,100.6,130.1,100.6 M11.4,4.6c-3.8,0-6.8,3.1-6.8,6.8v77.8c0,3.8,3.1,6.8,6.8,6.8
		h118.7c3.8,0,6.8-3.1,6.8-6.8V11.4c0-3.8-3.1-6.8-6.8-6.8H11.4z"/>
	<path clip-path="url(#SVGID_2_)" d="M70.8,61.8c-3,0-6.1-1-8.4-3L4.1,7.9C3.1,7.1,3,5.7,3.8,4.7c0.8-1,2.3-1,3.2-0.2l58.3,50.8
		c2.9,2.5,7.8,2.5,10.8,0l58.3-50.8c0.9-0.8,2.4-0.7,3.2,0.2c0.8,0.9,0.7,2.4-0.2,3.2L79.1,58.7C76.8,60.8,73.8,61.8,70.8,61.8"/>
</g>
</svg>
