<?xml version="1.0" encoding="utf-8"?>
<!-- Generator: Adobe Illustrator 17.1.0, SVG Export Plug-In . SVG Version: 6.00 Build 0)  -->
<!DOCTYPE svg PUBLIC "-//W3C//DTD SVG 1.1//EN" "http://www.w3.org/Graphics/SVG/1.1/DTD/svg11.dtd">
<svg version="1.1" id="Capa_1" xmlns="http://www.w3.org/2000/svg" xmlns:xlink="http://www.w3.org/1999/xlink" x="0px" y="0px"
	 viewBox="-267 390.9 60 60" enable-background="new -267 390.9 60 60" xml:space="preserve">
<path stroke="#cecece" stroke-miterlimit="10" d="M-212.9,391.9h-38.1c-3.3,0-5.9,2.7-5.9,5.9v8.1h-4.1c-3.3,0-5.9,2.7-5.9,5.9V433
	c0,3.3,2.7,5.9,5.9,5.9h6.1v10c0,0.4,0.3,0.8,0.6,0.9c0.1,0,0.2,0.1,0.4,0.1c0.3,0,0.5-0.1,0.7-0.3l9.7-10.7h20.6
	c3.3,0,5.9-2.7,5.9-5.9v-8.1h4.1c3.3,0,5.9-2.7,5.9-5.9v-21.1C-207,394.5-209.7,391.9-212.9,391.9z M-219,433c0,2.2-1.8,3.9-3.9,3.9
	H-244c-0.3,0-0.6,0.1-0.7,0.3l-8.3,9.1v-8.4c0-0.6-0.4-1-1-1h-7.1c-2.2,0-3.9-1.8-3.9-3.9v-21.1c0-2.2,1.8-3.9,3.9-3.9h5.1h33.1
	c2.2,0,3.9,1.8,3.9,3.9v12.1V433z M-209,419c0,2.2-1.8,3.9-3.9,3.9h-4.1v-11.1c0-3.3-2.7-5.9-5.9-5.9H-255v-8.1
	c0-2.2,1.8-3.9,3.9-3.9h38.1c2.2,0,3.9,1.8,3.9,3.9V419z"/>
</svg>
