<?xml version="1.0" encoding="utf-8"?>
<!-- Generator: Adobe Illustrator 17.1.0, SVG Export Plug-In . SVG Version: 6.00 Build 0)  -->
<!DOCTYPE svg PUBLIC "-//W3C//DTD SVG 1.1//EN" "http://www.w3.org/Graphics/SVG/1.1/DTD/svg11.dtd">
<svg version="1.1" id="Слой_1" xmlns="http://www.w3.org/2000/svg" xmlns:xlink="http://www.w3.org/1999/xlink" x="0px" y="0px"
	 viewBox="0 0 466.6 480.3" enable-background="new 0 0 466.6 480.3" xml:space="preserve">
<g>
	<defs>
		<rect id="SVGID_1_" width="466.6" height="480.3"/>
	</defs>
	<clipPath id="SVGID_2_">
		<use xlink:href="#SVGID_1_"  overflow="visible"/>
	</clipPath>
	<path clip-path="url(#SVGID_2_)" d="M247.3,234.1V13.5c0-7.5-6-13.5-13.5-13.5s-13.5,6-13.5,13.5v220.6c-31.3,6.3-55,34-55,67.2
		s23.7,60.9,55,67.2v98.2c0,7.5,6,13.5,13.5,13.5s13.5-6,13.5-13.5v-98.2c31.3-6.3,55-34,55-67.2
		C302.3,268.2,278.7,240.4,247.3,234.1 M233.8,342.8c-22.9,0-41.5-18.6-41.5-41.5c0-22.9,18.6-41.5,41.5-41.5
		c22.9,0,41.5,18.6,41.5,41.5C275.3,324.2,256.7,342.8,233.8,342.8"/>
	<path clip-path="url(#SVGID_2_)" d="M82,120.9V13.5C82,6,76,0,68.5,0S55,6,55,13.5v107.4c-31.3,6.3-55,34-55,67.2
		s23.7,60.9,55,67.2v211.4c0,7.5,6,13.5,13.5,13.5s13.5-6,13.5-13.5V255.2c31.3-6.3,55-34,55-67.2S113.3,127.2,82,120.9 M68.5,229.6
		C45.6,229.6,27,211,27,188.1s18.6-41.5,41.5-41.5s41.5,18.6,41.5,41.5S91.3,229.6,68.5,229.6"/>
	<path clip-path="url(#SVGID_2_)" d="M411.6,120.9V13.5c0-7.5-6-13.5-13.5-13.5s-13.5,6-13.5,13.5v107.4c-31.3,6.3-55,34-55,67.2
		s23.7,60.9,55,67.2v211.5c0,7.5,6,13.5,13.5,13.5s13.5-6,13.5-13.5V255.2c31.3-6.3,55-34,55-67.2S443,127.2,411.6,120.9
		 M398.1,229.6c-22.9,0-41.5-18.6-41.5-41.5s18.6-41.5,41.5-41.5c22.9,0,41.5,18.6,41.5,41.5S421,229.6,398.1,229.6"/>
</g>
</svg>
