<?xml version="1.0" encoding="utf-8"?>
<!-- Generator: Adobe Illustrator 17.1.0, SVG Export Plug-In . SVG Version: 6.00 Build 0)  -->
<!DOCTYPE svg PUBLIC "-//W3C//DTD SVG 1.1//EN" "http://www.w3.org/Graphics/SVG/1.1/DTD/svg11.dtd">
<svg version="1.1" id="Слой_1" xmlns="http://www.w3.org/2000/svg" xmlns:xlink="http://www.w3.org/1999/xlink" x="0px" y="0px"
	 viewBox="0 0 511.2 511.8" enable-background="new 0 0 511.2 511.8" xml:space="preserve">
<g>
	<defs>
		<rect id="SVGID_1_" width="511.2" height="511.8"/>
	</defs>
	<clipPath id="SVGID_2_">
		<use xlink:href="#SVGID_1_"  overflow="visible"/>
	</clipPath>
	<path clip-path="url(#SVGID_2_)" d="M468.6,0H332c-26.4,0-46.1,8.4-65.8,28.1c-3.3,3.3-3.3,8.7,0,12.1c3.3,3.3,8.7,3.3,12.1,0
		C295,23.5,310,17.1,332,17.1h136.5c14.1,0,25.6,11.5,25.6,25.6v136.5c0,22-6.5,37.1-23.1,53.7L217.7,486.7
		c-9.7,9.7-26.5,9.7-36.2,0L24.6,329.8c-4.8-4.8-7.5-11.3-7.5-18.1c0-6.8,2.7-13.3,7.5-18.1L253.6,64.9c3.5,0.9,7,1.8,10.7,2.8
		c34.7,9.3,62.1,18.9,82.5,27.5c-4,7.4-6.3,15.8-6.3,24.3c0,28.2,23,51.2,51.2,51.2s51.2-23,51.2-51.2s-23-51.2-51.2-51.2
		c-4.7,0-8.5,3.8-8.5,8.5s3.8,8.5,8.5,8.5c18.8,0,34.1,15.3,34.1,34.1c0,18.8-15.3,34.1-34.1,34.1s-34.1-15.3-34.1-34.1
		c0-6.1,1.7-12.1,4.8-17.4c14.8,7.1,24,13,27.7,16.8c-1.6,0.4-4,0.9-7.6,1.3c-4.7,0.4-8.2,4.6-7.7,9.3c0.4,4.4,4.1,7.8,8.5,7.8
		c0.2,0,0.5,0,0.8,0c5.2-0.5,21.2-1.9,24.3-13.3c8.4-31.4-114.8-66.1-139.5-72.7C230.8,41,194.4,34.1,166.2,31.6
		c-34.7-3-51.5,0.9-54.7,12.8c-1.5,5.7-5.6,20.8,63.6,48.1c4.4,1.7,9.3-0.4,11.1-4.8c1.7-4.4-0.4-9.3-4.8-11.1
		c-33.4-13.2-47.3-22.8-51.7-27.4c10.5-3.1,46.5-2.2,104.5,11L12.5,281.5C4.4,289.6,0,300.3,0,311.7c0,11.4,4.4,22.1,12.5,30.2
		l156.9,156.9c8.1,8.1,18.8,12.5,30.2,12.5c11.4,0,22.1-4.4,30.2-12.5L483.1,245c19.7-19.7,28.1-39.4,28.1-65.8V42.7
		C511.2,19.1,492.1,0,468.6,0"/>
	<path clip-path="url(#SVGID_2_)" d="M442.8,312.1c-4.1-2.4-9.3-1-11.7,3L333.3,482c-7.1,12.2-22.7,16.4-34.6,9.6l-19.1-12.3
		c-4-2.6-9.2-1.4-11.8,2.5c-2.6,4-1.4,9.2,2.5,11.8l19.4,12.6c6.7,3.9,14,5.7,21.3,5.7c14.8,0,29.1-7.6,37-21.3l97.8-166.8
		C448.2,319.7,446.8,314.5,442.8,312.1"/>
	<path clip-path="url(#SVGID_2_)" d="M204,247.5v119.5c0,4.7,3.8,8.5,8.5,8.5c4.7,0,8.5-3.8,8.5-8.5V247.5c0-4.7-3.8-8.5-8.5-8.5
		C207.9,238.9,204,242.8,204,247.5"/>
	<path clip-path="url(#SVGID_2_)" d="M255.2,273.1c0,9.4,7.7,17.1,17.1,17.1s17.1-7.7,17.1-17.1c0-9.4-7.7-17.1-17.1-17.1
		S255.2,263.7,255.2,273.1"/>
	<path clip-path="url(#SVGID_2_)" d="M135.8,324.3c0,9.4,7.7,17.1,17.1,17.1c9.4,0,17.1-7.7,17.1-17.1c0-9.4-7.7-17.1-17.1-17.1
		C143.4,307.2,135.8,314.9,135.8,324.3"/>
</g>
</svg>
