<?xml version="1.0" encoding="utf-8"?>
<!-- Generator: Adobe Illustrator 17.1.0, SVG Export Plug-In . SVG Version: 6.00 Build 0)  -->
<!DOCTYPE svg PUBLIC "-//W3C//DTD SVG 1.1//EN" "http://www.w3.org/Graphics/SVG/1.1/DTD/svg11.dtd">
<svg version="1.1" id="Слой_1" xmlns="http://www.w3.org/2000/svg" xmlns:xlink="http://www.w3.org/1999/xlink" x="0px" y="0px"
	 viewBox="0 0 72.5 82.9" enable-background="new 0 0 72.5 82.9" xml:space="preserve">
<g>
	<defs>
		<rect id="SVGID_1_" width="72.5" height="82.9"/>
	</defs>
	<clipPath id="SVGID_2_">
		<use xlink:href="#SVGID_1_"  overflow="visible"/>
	</clipPath>
	<path clip-path="url(#SVGID_2_)" d="M67.3,23.1c-0.1-1.3-1.2-2.4-2.6-2.4h-13v-5.2C51.8,7,44.8,0,36.3,0c-8.6,0-15.5,7-15.5,15.5
		v5.2h-13c-1.3,0-2.5,1-2.6,2.4L0,80.1c-0.1,0.7,0.2,1.4,0.7,2c0.5,0.5,1.2,0.8,1.9,0.8h67.3c0.7,0,1.4-0.3,1.9-0.8
		c0.5-0.5,0.7-1.3,0.7-2L67.3,23.1z M25.9,15.5c0-5.7,4.6-10.4,10.4-10.4s10.4,4.6,10.4,10.4v5.2H25.9V15.5z M5.4,77.7l4.7-51.8
		h10.6v5.9c-1.5,0.9-2.6,2.6-2.6,4.5c0,2.9,2.3,5.2,5.2,5.2c2.9,0,5.2-2.3,5.2-5.2c0-1.9-1-3.6-2.6-4.5v-5.9h20.7v5.9
		c-1.5,0.9-2.6,2.5-2.6,4.5c0,2.9,2.3,5.2,5.2,5.2c2.9,0,5.2-2.3,5.2-5.2c0-1.9-1-3.6-2.6-4.5v-5.9h10.6l4.7,51.8H5.4z"/>
</g>
</svg>
