<?xml version="1.0" encoding="utf-8"?>
<!-- Generator: Adobe Illustrator 17.1.0, SVG Export Plug-In . SVG Version: 6.00 Build 0)  -->
<!DOCTYPE svg PUBLIC "-//W3C//DTD SVG 1.1//EN" "http://www.w3.org/Graphics/SVG/1.1/DTD/svg11.dtd">
<svg version="1.1" id="Capa_1" xmlns="http://www.w3.org/2000/svg" xmlns:xlink="http://www.w3.org/1999/xlink" x="0px" y="0px"
	 viewBox="-62 186.6 469.3 469.3" enable-background="new -62 186.6 469.3 469.3" xml:space="preserve">
<path stroke="#000000" stroke-width="2" stroke-miterlimit="10" d="M348.7,576.5l-22.6-251.2c-1.5-20.1-13-37.8-30.8-47.3
	l-19.8-10.6c-0.1-6-0.9-22.8-5.7-42.6c0,0,0-0.1,0-0.1h0c0-0.2-0.1-0.3-0.1-0.5c-1.3-4.8-4.4-8.9-9.2-12.3
	c-20.1-14.3-41.5-20.6-58.1-23.4c-15.6-2.6-43.6-2.6-59.2,0c-16.6,2.7-38,9.1-58.1,23.4c-4.8,3.4-7.9,7.5-9.2,12.2
	c-0.1,0.3-0.2,0.5-0.2,0.8c-4.8,19.7-5.6,36.6-5.7,42.6L50,278c-17.8,9.5-29.3,27.2-30.8,47.2L-3.4,576.6
	c-0.5,6.8,0.7,13.6,3.6,19.7l3.2,6.9c1.2,0.9,2.4,1.8,3.5,2.8c3,1.4,6.2,2.4,9.6,2.9c0.8,0.1,1.4,0.4,2,0.7l15.5,2.9
	c3.3-0.5,6.6-0.9,10-1.3c0.3-0.1,0.6-0.2,0.9-0.3c2.7-2.9,4.9-6.3,6.7-9.9c1.9-4.1,3.1-8.6,3.5-13.1l11.7-106.2
	c0.3,37.5,0.1,79.6-1.6,106.2c-0.3,5.2,0.9,10.1,3.3,14.4c4.8,6.5,13.1,10,20.3,13.7c55.5,13.9,114,13.8,169.5-0.5
	c0.1-0.1,0.3-0.1,0.4-0.2c0.2-0.1,0.5-0.2,0.7-0.3c0.6-0.3,1-0.3,1.8-0.4c0.7-0.4,1.4-0.8,2.1-1.2c3.8-2.5,7.2-5.7,11.2-8
	c3.7-4.9,5.8-11.1,5.4-17.6c-1.6-26.6-1.8-68.7-1.6-106.2l11.7,106.2c0.7,7.9,3.8,15.4,8.8,21.5c3.2,1.1,6.5,2,9.7,2.8
	c1.2,0.1,2.4,0.1,3.5,0.2l16.9-3.2c4.3-1.8,8.7-3.5,12.6-6l3.2-6.8C347.9,590.2,349.2,583.4,348.7,576.5z M263.8,247.1
	c1.3,9.2,1.6,16.5,1.7,20.1c-17.6,13.2-41,22.2-60,27.9c6.1-3.8,12.6-7.9,19-12.4C243.6,269.4,256.6,257.6,263.8,247.1z
	 M172.7,302.4c-6.7-3.5-26.8-14.5-46.1-28c-13.7-9.5-24.2-18.4-31.3-26.2c18.9-12.1,38.8-17.1,53.6-19.1c13.8-1.8,33.9-1.9,47.8,0
	c14.8,2,34.5,7,53.4,19.1c-7,7.8-17.6,16.7-31.2,26.2C199.5,287.9,179.3,298.9,172.7,302.4z M85.3,227.1
	C85.3,227,85.3,227,85.3,227.1c0-0.1,0-0.1,0-0.1c0,0,0,0,0-0.1c0,0,0,0,0,0c0.6-2.5,2.5-4.8,5.4-6.9c17-12.1,35.2-18,50-20.8
	c18.1-3.5,45.8-3.5,64,0c14.8,2.9,32.9,8.8,49.9,20.8c2.9,2.1,4.7,4.4,5.4,6.9c0,0,0,0,0,0c0,0.1,0,0.1,0,0.2c0,0,0,0,0,0
	c0.9,3.6-0.5,8.1-3.8,13.3c-21.2-13.8-43.2-19.3-59.3-21.3c-12.8-1.6-35.6-1.6-48.5,0c-16.2,2.1-38.2,7.5-59.4,21.3
	C85.7,235.2,84.4,230.7,85.3,227.1z M81.5,247.1c7.1,10.5,20.2,22.3,39.3,35.6c6.4,4.5,12.9,8.6,19,12.4c-19-5.7-42.4-14.7-60-27.9
	C79.9,263.7,80.3,256.4,81.5,247.1z M336,592.1l-2.9,6.2l-26.2,4.9c-3.8-4.6-6.2-10.3-6.7-16.3c0,0,0-0.1,0-0.1l-20.5-186
	c-0.3-2.6-2.6-4.6-5.2-4.4c-2.6,0.1-4.7,2.2-4.8,4.9c0,1.3-3.1,130,0.4,187.2c0.5,7.7-4.6,14.8-12.1,16.8
	c-55.8,14.7-114.8,14.7-170.6,0c-7.5-2-12.6-9-12.1-16.8c3.5-57.2,0.4-185.9,0.4-187.2c-0.1-2.6-2.2-4.8-4.8-4.9
	c-2.7-0.1-4.9,1.8-5.2,4.4l-20.5,186c0,0,0,0.1,0,0.1c-0.3,3.4-1.2,6.7-2.6,9.8c-1.1,2.3-2.5,4.5-4.1,6.5l-26.2-4.9l-2.9-6.2
	c-2.2-4.6-3.1-9.7-2.7-14.6L29.2,326c1.3-16.7,10.8-31.3,25.6-39.2L74.9,276c15.2,11.2,35.7,20.7,60.9,28.4c0.9,0.3,1.9,0.6,2.8,0.8
	v140.3c0,2.8,2.2,5,5,5c2.8,0,5-2.2,5-5V308c12.9,3.3,22,4.9,23.1,5c0.3,0.1,0.6,0.1,0.9,0.1h0c0.3,0,0.6,0,0.9-0.1
	c1.1-0.2,10.2-1.7,23.1-5v137.5c0,2.8,2.2,5,5,5c2.8,0,5-2.2,5-5V305.2c0.9-0.3,1.9-0.5,2.8-0.8c25.2-7.6,45.7-17.2,60.9-28.4
	l20.2,10.8c14.7,7.9,24.3,22.6,25.6,39.3l22.6,251.2C339.1,582.4,338.2,587.5,336,592.1z"/>
</svg>
