<?xml version="1.0" encoding="utf-8"?>
<!-- Generator: Adobe Illustrator 17.1.0, SVG Export Plug-In . SVG Version: 6.00 Build 0)  -->
<!DOCTYPE svg PUBLIC "-//W3C//DTD SVG 1.1//EN" "http://www.w3.org/Graphics/SVG/1.1/DTD/svg11.dtd">
<svg version="1.1" id="Слой_1" xmlns="http://www.w3.org/2000/svg" xmlns:xlink="http://www.w3.org/1999/xlink" x="0px" y="0px"
	 viewBox="0 0 13 10" enable-background="new 0 0 13 10" xml:space="preserve">
<g>
	<g>
		<path d="M13,2C8.7,2,4.3,2,0,2c0-0.5,0-1,0-1.5C0,0.3,0,0,0,0c0.3,0,0.7,0,1,0c4,0,8,0,12,0C13,0.7,13,1.3,13,2z"/>
		<path d="M0,4c3.3,0,6.6,0,9.9,0c0,0.8,0,1.2,0,2C6.6,6,3.3,6,0,6C0,5.3,0,4.7,0,4z"/>
		<path d="M0,8c2.2,0,4.5,0,7,0c0,0.8,0,1.4,0,2c-2.3,0-4.7,0-7,0C0,9.3,0,8.7,0,8z"/>
	</g>
</g>
</svg>
