<?xml version="1.0" encoding="utf-8"?>
<!-- Generator: Adobe Illustrator 17.1.0, SVG Export Plug-In . SVG Version: 6.00 Build 0)  -->
<!DOCTYPE svg PUBLIC "-//W3C//DTD SVG 1.1//EN" "http://www.w3.org/Graphics/SVG/1.1/DTD/svg11.dtd">
<svg version="1.1" id="Capa_1" xmlns="http://www.w3.org/2000/svg" xmlns:xlink="http://www.w3.org/1999/xlink" x="0px" y="0px"
	 viewBox="-102 225.7 390.1 390.1" enable-background="new -102 225.7 390.1 390.1" xml:space="preserve">
<g>
	<g>
		<path stroke="#000000" stroke-miterlimit="10" d="M-5.5,542.7h-55.8c-3.1,0-5.1,2-5.1,5.1v39.4c0,3.1,2,5.1,5.1,5.1h55.8
			c3.1,0,5.1-2,5.1-5.1v-39.4C-0.4,544.7-2.4,542.7-5.5,542.7z M-10.6,582.1h-45.6v-29.2h45.6V582.1z"/>
	</g>
</g>
<g>
	<g>
		<path stroke="#000000" stroke-miterlimit="10" d="M69.8,542.7H14c-3.1,0-5.1,2-5.1,5.1v39.4c0,3.1,2,5.1,5.1,5.1h55.8
			c3.1,0,5.1-2,5.1-5.1v-39.4C74.9,544.7,72.3,542.7,69.8,542.7z M64.7,582.1H19.1v-29.2h45.6V582.1z"/>
	</g>
</g>
<g>
	<g>
		<path stroke="#000000" stroke-miterlimit="10" d="M144,542.7H88.2c-3.1,0-5.1,2-5.1,5.1v39.4c0,3.1,2,5.1,5.1,5.1H144
			c3.1,0,5.1-2,5.1-5.1v-39.4C149.1,544.7,147.1,542.7,144,542.7z M138.9,582.1H93.3v-29.2h45.6V582.1z"/>
	</g>
</g>
<g>
	<g>
		<path stroke="#000000" stroke-miterlimit="10" d="M276.1,259c0-0.5,0.5-0.5,0.5-1v-27.1c0-3.1-2-5.1-5.1-5.1H-84.8
			c-3.1,0-5.1,2-5.1,5.1V258c0,0,0,0,0,0.5l-9.7,94.7c0,1.5,0.5,3.1,1.5,4.1c1,1,2.6,1.5,3.6,1.5h4.6v165.4v86.5
			c0,3.1,2,5.1,5.1,5.1H271c3.1,0,5.1-2,5.1-5.1V358.9h4.6c1.5,0,3.1-0.5,3.6-1.5c1-1,1.5-2.6,1.5-4.1L276.1,259z M-79.7,236h346.1
			v16.9H-79.7V236z M162.4,605.1H-79.7v-76.3h242.2V605.1z M162.4,519.1H-79.7V358.9h242.2V519.1z M172.7,605.6v-81.9V358.9h93.2
			v246.8H172.7z M271,348.6H167.6H-84.8h-4.1l8.7-85h346.6l8.7,85H271z"/>
	</g>
</g>
<g>
	<g>
		<circle stroke="#000000" stroke-miterlimit="10" cx="193.2" cy="491.5" r="5.6"/>
	</g>
</g>
<g>
	<g>
		<path stroke="#000000" stroke-miterlimit="10" d="M-34.2,491.5l-18.9-18.9c-2-2-5.1-2-7.2,0s-2,5.1,0,7.2l18.9,18.9
			c1,1,2.6,1.5,3.6,1.5c1.5,0,2.6-0.5,3.6-1.5C-32.1,496.6-32.1,493.5-34.2,491.5z"/>
	</g>
</g>
<g>
	<g>
		<path stroke="#000000" stroke-miterlimit="10" d="M-10.6,487.9L-49,449.5c-2-2-5.1-2-7.2,0s-2,5.1,0,7.2l38.4,38.4
			c1,1,2.6,1.5,3.6,1.5s2.6-0.5,3.6-1.5C-8.6,493-8.6,489.9-10.6,487.9z"/>
	</g>
</g>
</svg>
