<?xml version="1.0" encoding="utf-8"?>
<!-- Generator: Adobe Illustrator 17.1.0, SVG Export Plug-In . SVG Version: 6.00 Build 0)  -->
<!DOCTYPE svg PUBLIC "-//W3C//DTD SVG 1.1//EN" "http://www.w3.org/Graphics/SVG/1.1/DTD/svg11.dtd">
<svg version="1.1" id="Слой_1" xmlns="http://www.w3.org/2000/svg" xmlns:xlink="http://www.w3.org/1999/xlink" x="0px" y="0px"
	 viewBox="0 0 512 512" enable-background="new 0 0 512 512" xml:space="preserve">
<g>
	<g>
		<path d="M513,45c0,2.3,0,4.7,0,7c-0.4,0.9-0.9,1.8-1,2.7c-4.8,23-9.6,45.9-14.4,68.9c-19.2,92.4-38.4,184.7-57.6,277.1
			c-4.6,22.3-9.2,44.6-14,66.9c-1.8,8.3-8.4,13.6-15.6,12c-3.3-0.7-6.5-2.6-9.3-4.6c-37.5-27.1-75-54.3-112.5-81.5
			c-11.7-8.5-19.2-8.2-30.5,1c-20,16.3-40,32.6-60,48.9c-10.8,8.8-21.2,5.8-25.3-7.4c-14.4-46.4-28.9-92.7-43.2-139.1
			c-1.1-3.5-2.8-5.5-6.3-6.8c-36.5-13.5-72.9-27.2-109.4-40.7C8,247.2,3.3,244.1,1,238c0-2.3,0-4.7,0-7c2.7-5.5,7.2-8.6,12.9-10.8
			C172.9,159,331.8,97.6,490.8,36.3C502,32,507.6,34.2,513,45z M155.2,288.8c0.3,1.6,0.4,3.9,1.1,6.2c8.1,28.5,16.2,56.9,24.3,85.4
			c1,3.5,2.6,6.2,6.8,5.8c4.2-0.4,5.1-3.5,5.6-7.1c1.7-12.9,3.8-25.7,5-38.6c1.4-14.3,7.4-25.6,18.1-35.4
			c60.3-55.5,120.2-111.5,180.2-167.3c1.8-1.7,4-3.2,5.3-5.3c0.8-1.2,1-3.7,0.2-4.8c-0.8-1.1-3.1-1.5-4.7-1.3
			c-1.3,0.1-2.6,1.4-3.9,2.2c-53.1,32.7-106.3,65.5-159.4,98.2c-22,13.5-43.9,27.1-65.9,40.5C160.1,272.2,155.7,278.9,155.2,288.8z"
			/>
	</g>
</g>
</svg>
