<?xml version="1.0" encoding="utf-8"?>
<!-- Generator: Adobe Illustrator 17.1.0, SVG Export Plug-In . SVG Version: 6.00 Build 0)  -->
<!DOCTYPE svg PUBLIC "-//W3C//DTD SVG 1.1//EN" "http://www.w3.org/Graphics/SVG/1.1/DTD/svg11.dtd">
<svg version="1.1" id="Слой_1" xmlns="http://www.w3.org/2000/svg" xmlns:xlink="http://www.w3.org/1999/xlink" x="0px" y="0px"
	 viewBox="0 0 1344 1472" enable-background="new 0 0 1344 1472" xml:space="preserve">
<g>
	<g>
		<path d="M1,698c0-23.3,0-46.7,0-70c0.3-3.1,0.6-6.2,0.9-9.3c3.5-41.8,5.9-83.7,10.7-125.4c4.2-36.7,10.6-73.1,16.6-109.6
			c6.9-42.3,19.6-82.8,39.3-121c36.9-71.6,92-125.4,161.2-165.5C300.2,56.3,377,33.1,456.8,19.1c47.8-8.4,95.8-14.2,144.3-16.5
			c8.6-0.4,17.2-1,25.9-1.5c23.7,0,47.3,0,71,0c1.6,0.3,3.3,0.6,4.9,0.7c30.6,2.1,61.2,3.5,91.7,6.3c51.8,4.6,103.1,12.3,154,23.1
			c61,12.9,119.8,32.1,174.5,62.7c84.3,47,143.8,115.3,174.6,206.9c27.8,82.6,40.2,168.2,45.2,254.9c0.7,12.1,1.3,24.2,2,36.4
			c0,24,0,48,0,72c-0.3,3.5-0.6,6.9-0.9,10.4c-3.1,42.7-4.8,85.5-9.6,128c-6.7,60.6-21.8,119.4-44.5,176.1
			c-14.5,36.1-31,71.1-55,102.1c-39.3,50.7-89.9,86-148.7,110.4c-59.6,24.7-122.1,37.6-186,43.6c-44.8,4.2-89.7,6.9-134.6,9
			c-53.1,2.5-106.3,3.6-159.4,5.6c-2.9,0.1-6.5,1.7-8.5,3.8c-8.7,8.8-16.5,18.3-25.3,27c-59.4,59.2-118.9,118.2-178.3,177.3
			c-5.2,5.1-10.2,10.4-15.3,15.6c-19.3,0-38.7,0-58,0c0-1.8,0.1-3.7,0.1-5.5c0-83-0.2-165.9,0.1-248.9c0-8.7-2.8-13.8-10.7-16.6
			c-14.5-5.2-28.8-11.2-43.5-16c-46.1-14.8-86.7-38.8-121.6-72.3c-40.7-39-70.5-85.4-91.1-137.6C22.8,896.9,8.8,813.9,3,729.3
			C2.3,718.9,1.7,708.4,1,698z M384.9,1376c2.4-2.2,3.8-3.5,5.2-4.9c19.6-19.1,39.4-37.9,58.6-57.3c33-33.4,66.1-66.8,98.3-101
			c16.3-17.4,35.3-26.8,58.7-27.7c62.9-2.4,125.9-4.5,188.8-7c52.4-2.1,104.8-5.9,156.6-15c50.6-8.9,99.5-23,145-47.3
			c48.9-26.1,87.4-63,112.6-112.7c30.9-60.8,50.2-125.3,60.2-192.6c7.7-51.7,10.6-103.7,11.7-155.9c1.6-71.8-2.6-143.2-14.7-214.1
			c-6.6-38.9-14.9-77.5-27.2-115c-20.5-62.5-56.5-113.9-110.2-152.4c-40.7-29.3-85.8-49.5-133.5-64.1
			c-41.3-12.6-83.6-20.8-126.2-27.3C825,75,781,69.9,736.8,67.2c-51.4-3.1-102.9-3.3-154.3,0.6C532.1,71.6,482.1,78.3,432.7,89
			c-59.2,12.8-115.9,32.4-169,62c-90,50.3-147.8,124.7-168.2,226.5c-12.5,62.2-21.2,125.1-26.4,188.4c-5.1,61.4-5.9,122.8-0.3,184.2
			c5.2,58.1,15.6,115.1,33.3,170.7c14.5,45.6,34.9,88.2,66.5,124.7c28.4,32.7,61.2,58.9,103,73c23.4,7.9,46.5,17.3,69.1,27.3
			c25.9,11.5,41.2,31.7,43.5,60.4c1,11.9,0.5,24,0.6,36C384.9,1286.4,384.9,1330.5,384.9,1376z"/>
		<path d="M879.5,1057c-15.4-0.1-30-3.7-44.1-9.6c-95.1-40.2-183.9-91.2-264.5-156.1c-87.8-70.7-160.6-154.4-220.2-250.1
			c-32.5-52.2-57.3-107.8-78.8-165c-4.1-10.9-9.7-21.5-11.8-32.8c-10-53.3,9.9-94.8,52.7-126.2c18.6-13.7,39.9-22,62.4-26.7
			c22.1-4.6,40.7,3,56.6,18c32.3,30.4,60.1,64.6,83.1,102.6c9.4,15.5,18,31.5,26.1,47.7c12.8,25.6,8.3,47.9-13.1,67
			c-11.1,9.8-23,18.7-33.8,28.9c-17.2,16.1-25.5,35.9-19.9,59.5c2.9,12,7.1,24,12.4,35.2C517.6,715.8,564.8,768,628,805.3
			c19,11.2,39.1,20.7,59.2,29.9c29.3,13.4,55.3,2.9,73.7-23.3c8.2-11.7,16.6-23,28.5-31.1c21.9-14.9,45.2-14.8,69.2-6.2
			c16.2,5.8,30.4,15,44,25.2c31.2,23.3,62.5,46.5,93.7,69.9c4.1,3.1,7.7,6.9,11.2,10.7c20.2,21.7,21.7,46,10.2,72.2
			c-18.4,41.8-48.7,71.7-89.5,91.5C912.8,1051.6,896.9,1057.2,879.5,1057z"/>
		<path d="M712.3,224.7c96.8,0.6,185,38.3,255.3,115.7c47.7,52.5,75.9,114.4,85.5,184.8c5.6,40.9,3.6,81.4-5.2,121.7
			c-5.2,23.8-29.6,33.7-50.1,20.4c-11.2-7.3-15.7-19.4-12.5-34.2c6.2-28.4,8.2-57,5.7-85.9c-4.8-55.9-24.2-106.2-59-150.2
			c-44.4-56.1-102.1-90.7-172.5-103.6c-36.8-6.8-73.6-5.9-110.2,2.2c-26,5.8-46.2-13.6-40.4-39.1c2.8-12.2,10.9-19.6,22.9-22.5
			C655.9,228.1,680.2,225.6,712.3,224.7z"/>
		<path d="M710.1,320c119,0.9,223.4,87,246,203.6c6,30.9,6.4,61.9,0.9,92.9c-3.1,17.7-17.2,27.7-35.7,25.4
			c-17.3-2.1-28.7-15.9-27.5-33.3c1-13.6,3.1-27.2,2.9-40.8c-1.2-88.9-67.3-165.4-154.9-180.1c-21.4-3.6-42.7-3.8-64.1-0.1
			c-29.5,5.1-42.4-21.8-36.7-41.5c3.5-12.1,11.9-19.3,24.1-21.1C680,322.9,695.1,321.7,710.1,320z"/>
		<path d="M865.2,574.2c0,18.1-7.7,29.7-22.9,33.9c-22,6-41-8.1-41.3-30.9c-0.8-48.1-32.6-86.2-79.3-94.7
			c-5.9-1.1-11.9-1.3-17.9-1.5c-18.8-0.7-31.4-13.8-31.2-32.5c0.3-18.8,13.2-31.5,32.1-31.5c80.6,0,148.7,59.9,159.1,140.3
			C864.5,562.9,864.7,568.6,865.2,574.2z"/>
	</g>
</g>
</svg>
