<?xml version="1.0" encoding="utf-8"?>
<!-- Generator: Adobe Illustrator 17.1.0, SVG Export Plug-In . SVG Version: 6.00 Build 0)  -->
<!DOCTYPE svg PUBLIC "-//W3C//DTD SVG 1.1//EN" "http://www.w3.org/Graphics/SVG/1.1/DTD/svg11.dtd">
<svg version="1.1" id="Слой_1" xmlns="http://www.w3.org/2000/svg" xmlns:xlink="http://www.w3.org/1999/xlink" x="0px" y="0px"
	 viewBox="0 0 512 512" enable-background="new 0 0 512 512" xml:space="preserve">
<g>
	<g>
		<path d="M246,1c10,0,20,0,30,0c1.3,0.3,2.6,0.7,3.9,0.8c43.8,3.1,84,16.7,120.3,41.2C459.4,83.2,495.9,138.5,509,209
			c1.8,9.6,2.7,19.4,4,29c0,10,0,20,0,30c-0.8,6.6-1.6,13.2-2.5,19.7c-7.2,50-27.3,94.1-61,131.7c-42.9,48-96.6,76.1-160.7,83.4
			c-48,5.4-93.9-2.7-137.5-23.6c-2.5-1.2-6.1-1.5-8.9-0.8c-32.9,8.4-65.7,17.1-98.5,25.8c-10.4,2.8-20.7,5.9-31,8.8c-4,0-8,0-12,0
			c0-3.7,0-7.3,0-11c0.6-1.5,1.4-3,1.9-4.6c12.6-37.9,25.2-75.7,38-113.5c1.5-4.5,1.1-8-1.1-12.1C22.3,340.1,12.5,306,10.2,270
			c-3.6-56.5,9.6-108.9,41.3-155.9c40-59.4,95.5-95.9,166-109.1C226.9,3.2,236.5,2.3,246,1z M345,410.5c7.2,0,19.1-2.6,30.4-8.2
			c18.7-9.2,32.7-24,46-39.3c8.5-9.8,8.4-24.7,1-35.5c-15-22.1-36.7-36.3-59.5-49.1c-1.4-0.8-3.1-1.1-4.7-1.5
			c-10.7-2.5-19.7-0.3-26.6,8.8c-3,4-6.4,7.7-9.8,11.4c-14,15.6-26.3,16-41.2,1.2c-16.4-16.3-32.8-32.7-49.1-49.1
			c-6.6-6.6-13.4-13-19.6-20c-9.7-10.7-9.2-23.4,1.2-33.3c5-4.8,10.3-9.4,15.8-13.8c6.1-4.8,9.6-11,8.9-18.5
			c-0.5-5.7-1.7-11.8-4.5-16.6c-10.6-18.6-23-35.9-39.3-50.1c-16.8-14.5-34.5-13.8-50.1,1.9c-6.1,6.1-12.3,12.2-18,18.7
			c-22.7,26-28.2,55.4-16.4,87.9c8,22.2,21.6,41,37.8,57.6c31.7,32.4,63.6,64.6,96,96.3c10.8,10.6,22.6,20.3,34.9,29.1
			C296.5,401.4,316.7,410.1,345,410.5z"/>
	</g>
</g>
</svg>
